<?xml version="1.0" encoding="UTF-8" standalone="no"?>
<!DOCTYPE svg PUBLIC "-//W3C//DTD SVG 1.1//EN" "http://www.w3.org/Graphics/SVG/1.1/DTD/svg11.dtd">
<svg width="100%" height="100%" viewBox="0 0 500 500" version="1.1" xmlns="http://www.w3.org/2000/svg" xmlns:xlink="http://www.w3.org/1999/xlink" xml:space="preserve" xmlns:serif="http://www.serif.com/" style="fill-rule:evenodd;clip-rule:evenodd;stroke-linejoin:round;stroke-miterlimit:2;">
    <g transform="matrix(1,0,0,1,-18502.4,-1406.52)">
        <g transform="matrix(1.78836,0,0,1.78836,18579.1,1873.69)">
            <path d="M15.35,-18.05C16.583,-17.683 17.6,-16.967 18.4,-15.9C19.2,-14.833 19.65,-13.35 19.75,-11.45C19.85,-9.65 19.925,-7.967 19.975,-6.4C20.025,-4.833 20.067,-3.15 20.1,-1.35C20.133,-0.417 19.858,0.317 19.275,0.85C18.692,1.383 17.933,1.683 17,1.75C16.1,1.817 15.317,1.583 14.65,1.05C13.983,0.517 13.6,-0.183 13.5,-1.05C13.433,-1.65 13.408,-2.275 13.425,-2.925C13.442,-3.575 13.433,-4.233 13.4,-4.9C13.333,-6 13.283,-6.992 13.25,-7.875C13.217,-8.758 13.133,-9.733 13,-10.8C12.9,-11.833 12.483,-12.558 11.75,-12.975C11.017,-13.392 10.083,-13.683 8.95,-13.85C8.917,-13.617 8.892,-13.392 8.875,-13.175C8.858,-12.958 8.85,-12.75 8.85,-12.55C8.817,-10.95 8.8,-9.367 8.8,-7.8L8.8,-3C8.8,-2.667 8.792,-2.358 8.775,-2.075C8.758,-1.792 8.733,-1.517 8.7,-1.25C8.533,-0.15 8.108,0.65 7.425,1.15C6.742,1.65 5.867,1.867 4.8,1.8C3.867,1.733 3.142,1.383 2.625,0.75C2.108,0.117 1.85,-0.717 1.85,-1.75C1.95,-6.817 1.992,-11.817 1.975,-16.75C1.958,-21.683 1.933,-26.633 1.9,-31.6L1.9,-39.45C1.9,-40.717 2.3,-41.658 3.1,-42.275C3.9,-42.892 4.933,-43.1 6.2,-42.9C7.2,-42.733 8.167,-42.7 9.1,-42.8C11.2,-42.933 13.008,-42.575 14.525,-41.725C16.042,-40.875 17.3,-39.55 18.3,-37.75C20.367,-34.183 20.883,-30.383 19.85,-26.35C19.483,-24.783 18.933,-23.308 18.2,-21.925C17.467,-20.542 16.517,-19.25 15.35,-18.05ZM8.9,-22.35C9.6,-22.317 10.208,-22.517 10.725,-22.95C11.242,-23.383 11.667,-23.917 12,-24.55C12.333,-25.183 12.6,-25.85 12.8,-26.55C13,-27.25 13.15,-27.883 13.25,-28.45C13.517,-29.717 13.558,-30.917 13.375,-32.05C13.192,-33.183 12.75,-34.3 12.05,-35.4C11.25,-36.6 10.2,-36.983 8.9,-36.55L8.9,-22.35Z" style="fill-rule:nonzero;"/>
            <path d="M24.5,-35.85C24.7,-36.85 25.042,-37.783 25.525,-38.65C26.008,-39.517 26.608,-40.283 27.325,-40.95C28.042,-41.617 28.85,-42.167 29.75,-42.6C30.65,-43.033 31.633,-43.317 32.7,-43.45C33.667,-43.583 34.608,-43.517 35.525,-43.25C36.442,-42.983 37.317,-42.6 38.15,-42.1C39.65,-41.067 40.767,-39.883 41.5,-38.55C42.233,-37.217 42.733,-35.75 43,-34.15C43.2,-32.983 43.342,-31.825 43.425,-30.675C43.508,-29.525 43.583,-28.367 43.65,-27.2C43.817,-24.233 43.908,-21.258 43.925,-18.275C43.942,-15.292 43.783,-12.333 43.45,-9.4C43.317,-8.267 43.125,-7.183 42.875,-6.15C42.625,-5.117 42.267,-4.117 41.8,-3.15C41.2,-1.917 40.483,-0.908 39.65,-0.125C38.817,0.658 37.9,1.233 36.9,1.6C35.9,1.967 34.842,2.158 33.725,2.175C32.608,2.192 31.5,2.05 30.4,1.75C28.9,1.45 27.692,0.8 26.775,-0.2C25.858,-1.2 25.167,-2.333 24.7,-3.6C24.233,-4.7 23.9,-5.817 23.7,-6.95C23.5,-8.083 23.367,-9.25 23.3,-10.45C23.233,-12.583 23.183,-14.725 23.15,-16.875C23.117,-19.025 23.125,-21.158 23.175,-23.275C23.225,-25.392 23.35,-27.5 23.55,-29.6C23.75,-31.7 24.067,-33.783 24.5,-35.85ZM36.4,-32.55C36.3,-33.983 35.983,-35.033 35.45,-35.7C34.917,-36.367 34.35,-36.692 33.75,-36.675C33.15,-36.658 32.583,-36.308 32.05,-35.625C31.517,-34.942 31.183,-33.967 31.05,-32.7C30.85,-30.433 30.7,-28.275 30.6,-26.225C30.5,-24.175 30.433,-22.183 30.4,-20.25C30.367,-18.317 30.358,-16.442 30.375,-14.625C30.392,-12.808 30.417,-11 30.45,-9.2C30.45,-7.633 30.725,-6.442 31.275,-5.625C31.825,-4.808 32.458,-4.383 33.175,-4.35C33.892,-4.317 34.567,-4.683 35.2,-5.45C35.833,-6.217 36.233,-7.4 36.4,-9C36.8,-13.233 37.017,-17.283 37.05,-21.15C37.083,-25.017 36.867,-28.817 36.4,-32.55Z" style="fill-rule:nonzero;"/>
            <path d="M47.6,-14.4C47.667,-15 47.858,-15.517 48.175,-15.95C48.492,-16.383 48.883,-16.725 49.35,-16.975C49.817,-17.225 50.325,-17.35 50.875,-17.35C51.425,-17.35 51.967,-17.217 52.5,-16.95C53.667,-16.35 54.25,-15.383 54.25,-14.05L54.25,-8.8C54.25,-8.1 54.3,-7.4 54.4,-6.7C54.6,-5.467 55.317,-4.833 56.55,-4.8C56.95,-4.767 57.283,-4.842 57.55,-5.025C57.817,-5.208 58.025,-5.442 58.175,-5.725C58.325,-6.008 58.433,-6.325 58.5,-6.675C58.567,-7.025 58.6,-7.35 58.6,-7.65C58.533,-8.517 58.475,-9.408 58.425,-10.325C58.375,-11.242 58.317,-12.15 58.25,-13.05C58.183,-14.083 57.9,-15 57.4,-15.8C56.9,-16.6 56.233,-17.317 55.4,-17.95C54.7,-18.517 54.025,-19.075 53.375,-19.625C52.725,-20.175 52.033,-20.717 51.3,-21.25C48.067,-23.55 46.55,-26.683 46.75,-30.65C46.817,-31.317 46.858,-31.992 46.875,-32.675C46.892,-33.358 46.933,-34.067 47,-34.8C47.1,-35.8 47.35,-36.775 47.75,-37.725C48.15,-38.675 48.675,-39.542 49.325,-40.325C49.975,-41.108 50.725,-41.742 51.575,-42.225C52.425,-42.708 53.35,-42.983 54.35,-43.05C55.217,-43.083 56.075,-43.083 56.925,-43.05C57.775,-43.017 58.617,-42.883 59.45,-42.65C61.05,-42.217 62.267,-41.433 63.1,-40.3C63.933,-39.167 64.483,-37.833 64.75,-36.3C64.917,-35.167 65.017,-34.008 65.05,-32.825C65.083,-31.642 65.1,-30.467 65.1,-29.3C65.1,-28.367 64.775,-27.6 64.125,-27C63.475,-26.4 62.683,-26.1 61.75,-26.1C60.883,-26.1 60.125,-26.383 59.475,-26.95C58.825,-27.517 58.467,-28.267 58.4,-29.2C58.333,-29.933 58.292,-30.642 58.275,-31.325C58.258,-32.008 58.233,-32.683 58.2,-33.35C58.167,-33.55 58.15,-33.75 58.15,-33.95C58.15,-34.15 58.133,-34.333 58.1,-34.5C57.9,-35.633 57.317,-36.217 56.35,-36.25C55.717,-36.283 55.175,-36.175 54.725,-35.925C54.275,-35.675 54.017,-35.267 53.95,-34.7C53.85,-33.633 53.792,-32.583 53.775,-31.55C53.758,-30.517 53.783,-29.467 53.85,-28.4C53.883,-28.1 54.033,-27.792 54.3,-27.475C54.567,-27.158 54.833,-26.867 55.1,-26.6C55.767,-26.067 56.442,-25.542 57.125,-25.025C57.808,-24.508 58.5,-23.983 59.2,-23.45C63.033,-20.683 65.033,-16.933 65.2,-12.2C65.233,-11.1 65.275,-10.017 65.325,-8.95C65.375,-7.883 65.417,-6.8 65.45,-5.7C65.483,-4.733 65.367,-3.858 65.1,-3.075C64.833,-2.292 64.467,-1.608 64,-1.025C63.533,-0.442 63,0.05 62.4,0.45C61.8,0.85 61.183,1.15 60.55,1.35C59.25,1.783 57.942,2.017 56.625,2.05C55.308,2.083 54.017,1.967 52.75,1.7C51.35,1.467 50.183,0.742 49.25,-0.475C48.317,-1.692 47.783,-3.1 47.65,-4.7C47.55,-6.3 47.525,-7.917 47.575,-9.55C47.625,-11.183 47.633,-12.8 47.6,-14.4Z" style="fill-rule:nonzero;"/>
            <path d="M75.3,-15.35C75.3,-14.55 75.292,-13.75 75.275,-12.95C75.258,-12.15 75.283,-11.35 75.35,-10.55C75.417,-9.85 75.467,-9.15 75.5,-8.45C75.533,-7.75 75.65,-7.125 75.85,-6.575C76.05,-6.025 76.392,-5.592 76.875,-5.275C77.358,-4.958 78.1,-4.833 79.1,-4.9C79.567,-4.933 80.067,-4.983 80.6,-5.05C81.133,-5.117 81.633,-5.15 82.1,-5.15C82.5,-5.15 82.908,-5.142 83.325,-5.125C83.742,-5.108 84.15,-5.05 84.55,-4.95C85.783,-4.55 86.483,-3.667 86.65,-2.3C86.717,-1.633 86.6,-1.058 86.3,-0.575C86,-0.092 85.567,0.283 85,0.55C84.833,0.717 84.625,0.833 84.375,0.9C84.125,0.967 83.867,1.017 83.6,1.05C82.5,1.183 81.342,1.3 80.125,1.4C78.908,1.5 77.767,1.583 76.7,1.65C75.067,1.717 73.725,1.458 72.675,0.875C71.625,0.292 70.8,-0.567 70.2,-1.7C69.6,-2.833 69.167,-4.217 68.9,-5.85C68.633,-7.483 68.467,-9.3 68.4,-11.3C68.3,-14 68.283,-16.692 68.35,-19.375C68.417,-22.058 68.483,-24.75 68.55,-27.45C68.617,-29.483 68.8,-31.475 69.1,-33.425C69.4,-35.375 69.933,-37.233 70.7,-39C71.767,-41.533 73.633,-42.85 76.3,-42.95C77.433,-42.983 78.633,-42.983 79.9,-42.95C81.567,-42.883 83.008,-42.375 84.225,-41.425C85.442,-40.475 86.283,-39.2 86.75,-37.6C86.917,-37.067 87.05,-36.525 87.15,-35.975C87.25,-35.425 87.283,-34.9 87.25,-34.4C87.183,-32.4 87.075,-30.408 86.925,-28.425C86.775,-26.442 86.617,-24.467 86.45,-22.5C86.417,-22.2 86.358,-21.9 86.275,-21.6C86.192,-21.3 86.1,-21 86,-20.7C85.033,-17.733 83.017,-16.05 79.95,-15.65C79.217,-15.55 78.467,-15.492 77.7,-15.475C76.933,-15.458 76.133,-15.417 75.3,-15.35ZM77.6,-21.95C78.033,-21.95 78.375,-21.958 78.625,-21.975C78.875,-21.992 79.075,-22.058 79.225,-22.175C79.375,-22.292 79.475,-22.467 79.525,-22.7C79.575,-22.933 79.633,-23.25 79.7,-23.65C79.867,-24.883 79.992,-26.083 80.075,-27.25C80.158,-28.417 80.25,-29.6 80.35,-30.8C80.383,-31.4 80.408,-31.992 80.425,-32.575C80.442,-33.158 80.433,-33.733 80.4,-34.3C80.367,-34.7 80.258,-35.05 80.075,-35.35C79.892,-35.65 79.583,-35.85 79.15,-35.95C78.717,-36.05 78.292,-36.058 77.875,-35.975C77.458,-35.892 77.117,-35.65 76.85,-35.25C76.683,-35.05 76.55,-34.833 76.45,-34.6C76.35,-34.367 76.283,-34.117 76.25,-33.85C75.85,-31.883 75.608,-29.933 75.525,-28C75.442,-26.067 75.367,-24.05 75.3,-21.95L77.6,-21.95Z" style="fill-rule:nonzero;"/>
            <path d="M96.7,-40.75C97.633,-41.417 98.558,-41.908 99.475,-42.225C100.392,-42.542 101.35,-42.667 102.35,-42.6C103.883,-42.433 105.15,-42.008 106.15,-41.325C107.15,-40.642 107.958,-39.792 108.575,-38.775C109.192,-37.758 109.633,-36.633 109.9,-35.4C110.167,-34.167 110.317,-32.917 110.35,-31.65C110.35,-28.483 110.333,-25.317 110.3,-22.15C110.267,-18.983 110.233,-15.817 110.2,-12.65C110.167,-10.85 110.142,-9.092 110.125,-7.375C110.108,-5.658 110.083,-3.917 110.05,-2.15L110.05,-1.425C110.05,-1.175 110.033,-0.917 110,-0.65C109.833,0.25 109.433,0.942 108.8,1.425C108.167,1.908 107.417,2.133 106.55,2.1C105.683,2.067 104.967,1.808 104.4,1.325C103.833,0.842 103.483,0.167 103.35,-0.7C103.283,-1.067 103.25,-1.417 103.25,-1.75L103.25,-2.8C103.317,-6.6 103.383,-10.342 103.45,-14.025C103.517,-17.708 103.583,-21.467 103.65,-25.3C103.683,-26.533 103.675,-27.775 103.625,-29.025C103.575,-30.275 103.517,-31.533 103.45,-32.8C103.417,-33.2 103.35,-33.617 103.25,-34.05C103.15,-34.483 102.992,-34.892 102.775,-35.275C102.558,-35.658 102.283,-35.967 101.95,-36.2C101.617,-36.433 101.233,-36.55 100.8,-36.55C100.133,-36.55 99.575,-36.25 99.125,-35.65C98.675,-35.05 98.308,-34.35 98.025,-33.55C97.742,-32.75 97.533,-31.942 97.4,-31.125C97.267,-30.308 97.183,-29.667 97.15,-29.2C97.083,-28.133 97.033,-27.1 97,-26.1C96.967,-25.1 96.933,-24.067 96.9,-23C96.9,-21.233 96.892,-19.467 96.875,-17.7C96.858,-15.933 96.883,-14.183 96.95,-12.45C97.017,-10.683 97.1,-9.042 97.2,-7.525C97.3,-6.008 97.383,-4.4 97.45,-2.7C97.483,-2.367 97.5,-2.025 97.5,-1.675C97.5,-1.325 97.467,-0.967 97.4,-0.6C97.233,0.233 96.825,0.892 96.175,1.375C95.525,1.858 94.733,2.067 93.8,2C93.033,1.933 92.35,1.642 91.75,1.125C91.15,0.608 90.817,-0.083 90.75,-0.95C90.617,-2.75 90.5,-4.467 90.4,-6.1C90.3,-7.733 90.217,-9.5 90.15,-11.4C90.083,-13.233 90.067,-15.083 90.1,-16.95C90.133,-18.817 90.133,-20.7 90.1,-22.6C90.067,-25.433 90.033,-28.242 90,-31.025C89.967,-33.808 89.933,-36.583 89.9,-39.35L89.9,-40.7C90,-41.567 90.3,-42.267 90.8,-42.8C91.3,-43.333 91.917,-43.667 92.65,-43.8C93.45,-43.933 94.183,-43.817 94.85,-43.45C95.517,-43.083 96.017,-42.483 96.35,-41.65C96.45,-41.45 96.567,-41.15 96.7,-40.75Z" style="fill-rule:nonzero;"/>
            <path d="M120.5,-11.15C120.533,-10.317 120.558,-9.533 120.575,-8.8C120.592,-8.067 120.608,-7.35 120.625,-6.65C120.642,-5.95 120.658,-5.25 120.675,-4.55C120.692,-3.85 120.717,-3.1 120.75,-2.3C120.75,-2.033 120.758,-1.792 120.775,-1.575C120.792,-1.358 120.783,-1.133 120.75,-0.9C120.65,-0.1 120.325,0.558 119.775,1.075C119.225,1.592 118.55,1.9 117.75,2C116.917,2.067 116.175,1.9 115.525,1.5C114.875,1.1 114.433,0.533 114.2,-0.2C114,-0.6 113.9,-1.117 113.9,-1.75C113.833,-7.55 113.767,-13.192 113.7,-18.675C113.633,-24.158 113.567,-29.783 113.5,-35.55C113.467,-36.15 113.442,-36.75 113.425,-37.35C113.408,-37.95 113.417,-38.55 113.45,-39.15C113.483,-40.417 113.833,-41.383 114.5,-42.05C115.167,-42.717 116.133,-43.05 117.4,-43.05C119.067,-43.017 120.783,-42.867 122.55,-42.6C123.817,-42.4 124.933,-41.967 125.9,-41.3C126.867,-40.633 127.7,-39.783 128.4,-38.75C129.167,-37.75 129.758,-36.683 130.175,-35.55C130.592,-34.417 130.883,-33.217 131.05,-31.95C131.283,-30.15 131.367,-28.383 131.3,-26.65C131.233,-24.917 130.933,-23.15 130.4,-21.35C129.933,-19.483 129.175,-17.842 128.125,-16.425C127.075,-15.008 125.733,-13.833 124.1,-12.9C123.567,-12.533 122.992,-12.233 122.375,-12C121.758,-11.767 121.133,-11.483 120.5,-11.15ZM120.35,-36.6C120.25,-33.5 120.208,-30.442 120.225,-27.425C120.242,-24.408 120.3,-21.333 120.4,-18.2C121.467,-18.8 122.258,-19.542 122.775,-20.425C123.292,-21.308 123.667,-22.25 123.9,-23.25C124.267,-24.583 124.467,-25.933 124.5,-27.3C124.533,-28.667 124.45,-30.05 124.25,-31.45C124.15,-32.15 123.992,-32.825 123.775,-33.475C123.558,-34.125 123.233,-34.733 122.8,-35.3C122.533,-35.667 122.208,-35.967 121.825,-36.2C121.442,-36.433 120.95,-36.567 120.35,-36.6Z" style="fill-rule:nonzero;"/>
            <path d="M144.85,-27.85C144.917,-29.083 144.933,-30.325 144.9,-31.575C144.867,-32.825 144.683,-34.05 144.35,-35.25C144.183,-35.917 143.742,-36.425 143.025,-36.775C142.308,-37.125 141.55,-37.217 140.75,-37.05C140.25,-36.917 139.742,-36.825 139.225,-36.775C138.708,-36.725 138.2,-36.783 137.7,-36.95C137.1,-37.183 136.617,-37.5 136.25,-37.9C135.883,-38.3 135.7,-38.817 135.7,-39.45C135.633,-40.783 136.25,-41.7 137.55,-42.2C138.65,-42.667 139.8,-42.983 141,-43.15C142.133,-43.283 143.25,-43.208 144.35,-42.925C145.45,-42.642 146.45,-42.2 147.35,-41.6C148.25,-41 149.025,-40.275 149.675,-39.425C150.325,-38.575 150.767,-37.633 151,-36.6C151.2,-35.7 151.358,-34.792 151.475,-33.875C151.592,-32.958 151.633,-32.033 151.6,-31.1C151.533,-27.833 151.45,-24.608 151.35,-21.425C151.25,-18.242 151.133,-15.033 151,-11.8C150.933,-10.367 150.9,-8.958 150.9,-7.575C150.9,-6.192 150.883,-4.783 150.85,-3.35C150.817,-3.017 150.792,-2.683 150.775,-2.35C150.758,-2.017 150.733,-1.667 150.7,-1.3C150.533,-0.533 150.208,0.1 149.725,0.6C149.242,1.1 148.633,1.417 147.9,1.55C146.133,1.783 144.408,1.892 142.725,1.875C141.042,1.858 139.383,1.633 137.75,1.2C135.95,0.833 134.508,0.083 133.425,-1.05C132.342,-2.183 131.683,-3.633 131.45,-5.4C130.85,-10.4 131.2,-15.433 132.5,-20.5C132.8,-21.5 133.233,-22.5 133.8,-23.5C134.7,-25.1 136.017,-26.325 137.75,-27.175C139.483,-28.025 141.333,-28.317 143.3,-28.05C143.567,-28.017 143.817,-27.983 144.05,-27.95C144.283,-27.917 144.55,-27.883 144.85,-27.85ZM144.55,-21.25C144.417,-21.317 144.308,-21.367 144.225,-21.4C144.142,-21.433 144.067,-21.483 144,-21.55C141.5,-22.65 139.85,-21.95 139.05,-19.45C139.017,-19.383 139,-19.308 139,-19.225C139,-19.142 138.983,-19.05 138.95,-18.95C138.483,-17.25 138.2,-15.567 138.1,-13.9C138,-12.233 137.95,-10.533 137.95,-8.8C137.917,-8.4 137.933,-7.992 138,-7.575C138.067,-7.158 138.133,-6.733 138.2,-6.3C138.3,-5.067 138.967,-4.417 140.2,-4.35C140.833,-4.283 141.467,-4.258 142.1,-4.275C142.733,-4.292 143.383,-4.3 144.05,-4.3C144.117,-7.133 144.2,-9.933 144.3,-12.7C144.4,-15.467 144.483,-18.317 144.55,-21.25Z" style="fill-rule:nonzero;"/>
            <path d="M155.2,-14.4C155.267,-15 155.458,-15.517 155.775,-15.95C156.092,-16.383 156.483,-16.725 156.95,-16.975C157.417,-17.225 157.925,-17.35 158.475,-17.35C159.025,-17.35 159.567,-17.217 160.1,-16.95C161.267,-16.35 161.85,-15.383 161.85,-14.05L161.85,-8.8C161.85,-8.1 161.9,-7.4 162,-6.7C162.2,-5.467 162.917,-4.833 164.15,-4.8C164.55,-4.767 164.883,-4.842 165.15,-5.025C165.417,-5.208 165.625,-5.442 165.775,-5.725C165.925,-6.008 166.033,-6.325 166.1,-6.675C166.167,-7.025 166.2,-7.35 166.2,-7.65C166.133,-8.517 166.075,-9.408 166.025,-10.325C165.975,-11.242 165.917,-12.15 165.85,-13.05C165.783,-14.083 165.5,-15 165,-15.8C164.5,-16.6 163.833,-17.317 163,-17.95C162.3,-18.517 161.625,-19.075 160.975,-19.625C160.325,-20.175 159.633,-20.717 158.9,-21.25C155.667,-23.55 154.15,-26.683 154.35,-30.65C154.417,-31.317 154.458,-31.992 154.475,-32.675C154.492,-33.358 154.533,-34.067 154.6,-34.8C154.7,-35.8 154.95,-36.775 155.35,-37.725C155.75,-38.675 156.275,-39.542 156.925,-40.325C157.575,-41.108 158.325,-41.742 159.175,-42.225C160.025,-42.708 160.95,-42.983 161.95,-43.05C162.817,-43.083 163.675,-43.083 164.525,-43.05C165.375,-43.017 166.217,-42.883 167.05,-42.65C168.65,-42.217 169.867,-41.433 170.7,-40.3C171.533,-39.167 172.083,-37.833 172.35,-36.3C172.517,-35.167 172.617,-34.008 172.65,-32.825C172.683,-31.642 172.7,-30.467 172.7,-29.3C172.7,-28.367 172.375,-27.6 171.725,-27C171.075,-26.4 170.283,-26.1 169.35,-26.1C168.483,-26.1 167.725,-26.383 167.075,-26.95C166.425,-27.517 166.067,-28.267 166,-29.2C165.933,-29.933 165.892,-30.642 165.875,-31.325C165.858,-32.008 165.833,-32.683 165.8,-33.35C165.767,-33.55 165.75,-33.75 165.75,-33.95C165.75,-34.15 165.733,-34.333 165.7,-34.5C165.5,-35.633 164.917,-36.217 163.95,-36.25C163.317,-36.283 162.775,-36.175 162.325,-35.925C161.875,-35.675 161.617,-35.267 161.55,-34.7C161.45,-33.633 161.392,-32.583 161.375,-31.55C161.358,-30.517 161.383,-29.467 161.45,-28.4C161.483,-28.1 161.633,-27.792 161.9,-27.475C162.167,-27.158 162.433,-26.867 162.7,-26.6C163.367,-26.067 164.042,-25.542 164.725,-25.025C165.408,-24.508 166.1,-23.983 166.8,-23.45C170.633,-20.683 172.633,-16.933 172.8,-12.2C172.833,-11.1 172.875,-10.017 172.925,-8.95C172.975,-7.883 173.017,-6.8 173.05,-5.7C173.083,-4.733 172.967,-3.858 172.7,-3.075C172.433,-2.292 172.067,-1.608 171.6,-1.025C171.133,-0.442 170.6,0.05 170,0.45C169.4,0.85 168.783,1.15 168.15,1.35C166.85,1.783 165.542,2.017 164.225,2.05C162.908,2.083 161.617,1.967 160.35,1.7C158.95,1.467 157.783,0.742 156.85,-0.475C155.917,-1.692 155.383,-3.1 155.25,-4.7C155.15,-6.3 155.125,-7.917 155.175,-9.55C155.225,-11.183 155.233,-12.8 155.2,-14.4Z" style="fill-rule:nonzero;"/>
            <path d="M176.3,-14.4C176.367,-15 176.558,-15.517 176.875,-15.95C177.192,-16.383 177.583,-16.725 178.05,-16.975C178.517,-17.225 179.025,-17.35 179.575,-17.35C180.125,-17.35 180.667,-17.217 181.2,-16.95C182.367,-16.35 182.95,-15.383 182.95,-14.05L182.95,-8.8C182.95,-8.1 183,-7.4 183.1,-6.7C183.3,-5.467 184.017,-4.833 185.25,-4.8C185.65,-4.767 185.983,-4.842 186.25,-5.025C186.517,-5.208 186.725,-5.442 186.875,-5.725C187.025,-6.008 187.133,-6.325 187.2,-6.675C187.267,-7.025 187.3,-7.35 187.3,-7.65C187.233,-8.517 187.175,-9.408 187.125,-10.325C187.075,-11.242 187.017,-12.15 186.95,-13.05C186.883,-14.083 186.6,-15 186.1,-15.8C185.6,-16.6 184.933,-17.317 184.1,-17.95C183.4,-18.517 182.725,-19.075 182.075,-19.625C181.425,-20.175 180.733,-20.717 180,-21.25C176.767,-23.55 175.25,-26.683 175.45,-30.65C175.517,-31.317 175.558,-31.992 175.575,-32.675C175.592,-33.358 175.633,-34.067 175.7,-34.8C175.8,-35.8 176.05,-36.775 176.45,-37.725C176.85,-38.675 177.375,-39.542 178.025,-40.325C178.675,-41.108 179.425,-41.742 180.275,-42.225C181.125,-42.708 182.05,-42.983 183.05,-43.05C183.917,-43.083 184.775,-43.083 185.625,-43.05C186.475,-43.017 187.317,-42.883 188.15,-42.65C189.75,-42.217 190.967,-41.433 191.8,-40.3C192.633,-39.167 193.183,-37.833 193.45,-36.3C193.617,-35.167 193.717,-34.008 193.75,-32.825C193.783,-31.642 193.8,-30.467 193.8,-29.3C193.8,-28.367 193.475,-27.6 192.825,-27C192.175,-26.4 191.383,-26.1 190.45,-26.1C189.583,-26.1 188.825,-26.383 188.175,-26.95C187.525,-27.517 187.167,-28.267 187.1,-29.2C187.033,-29.933 186.992,-30.642 186.975,-31.325C186.958,-32.008 186.933,-32.683 186.9,-33.35C186.867,-33.55 186.85,-33.75 186.85,-33.95C186.85,-34.15 186.833,-34.333 186.8,-34.5C186.6,-35.633 186.017,-36.217 185.05,-36.25C184.417,-36.283 183.875,-36.175 183.425,-35.925C182.975,-35.675 182.717,-35.267 182.65,-34.7C182.55,-33.633 182.492,-32.583 182.475,-31.55C182.458,-30.517 182.483,-29.467 182.55,-28.4C182.583,-28.1 182.733,-27.792 183,-27.475C183.267,-27.158 183.533,-26.867 183.8,-26.6C184.467,-26.067 185.142,-25.542 185.825,-25.025C186.508,-24.508 187.2,-23.983 187.9,-23.45C191.733,-20.683 193.733,-16.933 193.9,-12.2C193.933,-11.1 193.975,-10.017 194.025,-8.95C194.075,-7.883 194.117,-6.8 194.15,-5.7C194.183,-4.733 194.067,-3.858 193.8,-3.075C193.533,-2.292 193.167,-1.608 192.7,-1.025C192.233,-0.442 191.7,0.05 191.1,0.45C190.5,0.85 189.883,1.15 189.25,1.35C187.95,1.783 186.642,2.017 185.325,2.05C184.008,2.083 182.717,1.967 181.45,1.7C180.05,1.467 178.883,0.742 177.95,-0.475C177.017,-1.692 176.483,-3.1 176.35,-4.7C176.25,-6.3 176.225,-7.917 176.275,-9.55C176.325,-11.183 176.333,-12.8 176.3,-14.4Z" style="fill-rule:nonzero;"/>
        </g>
        <g transform="matrix(0.0402939,0,0,0.0402939,18581.1,1427.83)">
            <path d="M5893.66,4397.36C5893.66,4397.36 6485.91,5997.72 5912.07,7231.95C5338.22,8466.18 4481.54,8384.2 4221.94,8479.84C3962.34,8575.49 2832.86,8270.34 2459.4,7354.92C2085.95,6439.49 2286.34,4959.33 2286.34,4959.33L2283.59,4811.49C2283.59,4811.49 2091.31,4429.13 1726.38,3808.47C1137.78,2796.06 70.46,977.77 349.06,540.88C627.665,103.999 1188.79,-15.151 1746,495.385C2307.13,1005.2 2907.5,2527.07 3076.24,4199.49C3076.24,4199.49 3900.28,3860.82 4779.25,4148.22C4779.25,4148.22 4947.98,2848.41 5642.53,1869.58C6333.15,891.11 7310.23,227.484 7973.38,394.654C8636.54,561.829 8491.35,1263.01 7879.2,1799.54C7267.06,2336.08 6011.39,4007.78 5893.66,4397.36Z" style="fill:white;"/>
        </g>
        <g transform="matrix(0.0402939,0,0,0.0402939,18581.1,1427.83)">
            <path d="M2335.87,7764.06L1149.55,7827.97L1196.64,8512.18L1632.2,8491.23L1545.88,8170.61L1957.89,8151.84L1926.51,8467.04L2358.14,8451.51L2335.87,7764.06Z" style="fill:white;"/>
        </g>
        <g id="pink" transform="matrix(0.0402939,0,0,0.0402939,18581.1,1427.83)">
            <path d="M4412.48,8432.4L4000.46,8414.74C4133.87,8407.68 4082.86,8351.96 4039.7,8324.49C3812.1,8178.13 3659.07,7779.06 3714,7761C3714,7761 4106.41,7880.69 4196.66,7883.04C4341.85,7887.36 4569.44,7856.36 4651.84,7712.74C4671.46,7678.21 4753.86,7543.22 4714.62,7544.01C4059.32,7557.35 3953.37,7178.29 3961.22,7008.38C3961.22,7008.38 4561.59,7180.26 4714.62,6972.28C4863.73,6763.91 4659.69,6088.21 4867.66,5758.98C4950.07,5628.71 5071.71,5521.58 5189.43,5420.34C5358.16,5279.87 5636.77,5225.32 5683.86,5020.49C5715.24,4881.58 5562.21,4653.98 5507.27,4590.81C5397.4,4461.71 5267.91,4346.74 5142.34,4232.16C5228.67,3961.79 5314.99,3690.25 5428.79,3427.74C5672.08,2855.62 6056.63,2399.65 6386.25,1851.08C6711.94,1301.72 7747.87,1036.45 7532.06,1464.56C7532.06,1464.56 7037.63,2032.36 7006.24,2066.11C6358.78,2839.92 6091.95,3303.74 5621.07,4106.98C5695.63,4183.5 5766.26,4260.41 5829.04,4344.38C5887.9,4426 5934.99,4630.44 5974.23,4721.87C6162.59,5139.78 6154.74,5564.74 6158.66,5974.01C6166.51,6767.05 5919.3,7476.12 5267.92,8016.84C5048.17,8198.92 4726.4,8406.89 4412.49,8432.4L4412.48,8432.4ZM3502.11,6353.07C3502.11,6353.07 2889.97,6387.6 2787.94,5861.39C2670.22,5226.1 3074.39,5328.91 3301.99,5569.06C3529.58,5809.21 3502.11,6353.07 3502.11,6353.07Z" style="fill:rgb(247,4,132);"/>
        </g>
        <g transform="matrix(0.0402939,0,0,0.0402939,18581.1,1427.83)">
            <path d="M2398.45,4753.73C2430.33,4817.12 2404.74,4894.47 2341.35,4926.35C2277.96,4958.23 2200.61,4932.64 2168.73,4869.25C2168.73,4869.25 1977.8,4489.73 1615.55,3873.63C1615.45,3873.45 1615.34,3873.27 1615.23,3873.09C1199.58,3158.16 548.341,2044.33 290.777,1289.52C220.071,1082.31 178.747,900.08 175.229,757.222C172.303,638.386 195.734,542.206 240.66,471.753C402.525,217.934 647.881,58.652 932.281,34.738C1205.97,11.725 1521.08,115.029 1832.62,400.377C2388.81,905.888 2992.53,2379.44 3186.67,4026.74C3458.25,3946.32 4043.2,3820.81 4675.68,3984.1C4743.14,3610.08 4968.32,2597.68 5537.56,1795.35C5965.2,1189.5 6500.56,702.056 7007.19,445.146C7366.38,263.008 7713.7,196.605 8004.81,269.989C8770.97,463.131 8671.18,1276.35 7963.95,1896.23C7540.92,2267.01 6807.46,3187.64 6365.07,3838.13C6183.23,4105.51 6050.17,4323.89 6016.73,4434.55C5996.21,4502.48 5924.4,4540.96 5856.48,4520.43C5788.55,4499.91 5750.07,4428.1 5770.6,4360.18C5807.79,4237.09 5950.19,3990.94 6152.45,3693.54C6606.28,3026.21 7360.49,2083.23 7794.46,1702.86C8019.54,1505.58 8178.09,1285.64 8245.72,1081.03C8289.02,950.049 8294.99,827.136 8245.82,727.169C8197.34,628.598 8095.87,558.12 7941.95,519.319C7702.53,458.964 7418.9,524.675 7123.49,674.477C6648.27,915.451 6148.67,1375.44 5747.57,1943.72L5747.38,1943.98C5070.54,2897.86 4906.74,4164.77 4906.74,4164.77C4901.82,4202.74 4880.23,4236.53 4847.85,4256.96C4815.48,4277.38 4775.68,4282.32 4739.29,4270.42C3906.18,3998.01 3125.11,4318.41 3125.11,4318.41C3087.57,4333.84 3044.94,4330.63 3010.12,4309.76C2975.31,4288.88 2952.4,4252.79 2948.32,4212.4C2783.5,2578.81 2207.65,1088.52 1659.55,590.541C1659.41,590.42 1659.28,590.299 1659.15,590.177C1413.54,365.138 1169.6,272.821 953.826,290.964C748.706,308.212 574.203,426.943 457.46,610.006C435.505,644.435 430.851,692.82 432.281,750.892C435.296,873.33 473.53,1028.89 534.129,1206.48C787.163,1948.01 1428.98,3041.14 1837.38,3743.59C2204.88,4368.64 2398.45,4753.73 2398.45,4753.73Z"/>
        </g>
        <g transform="matrix(0.0402939,0,0,0.0402939,18581.1,1427.83)">
            <path d="M3758.14,8243.97C3632.29,8065.62 3563.49,7863.42 3541.88,7731.16C3533.69,7681.05 3555.76,7630.8 3598.22,7602.94C3640.68,7575.08 3695.55,7574.82 3738.27,7602.27C3965.99,7748.64 4171.23,7788.13 4339.91,7747.28C4410.02,7730.29 4472.96,7699.39 4527.51,7657.9C4300.93,7646.96 4146.92,7577.38 4041.31,7493.44C3800.4,7301.97 3795.3,7019.35 3795.3,7019.35C3794.12,6972.57 3818.45,6928.85 3858.81,6905.19C3899.18,6881.53 3949.22,6881.67 3989.45,6905.56C4203.81,7032.82 4410.39,7058.1 4598.48,6912.42C4582.89,6702.36 4554.21,6063.61 4743.49,5699.57C4953.58,5290.91 5337.03,5088.42 5529.83,5008.56C5462.49,4769.3 5337.03,4568.23 5077.19,4409.59C5029.79,4380.65 5006.33,4324.54 5019.03,4270.47C5019.03,4270.47 5360.54,2818.66 6275.37,1766.45L6275.57,1766.22C6767.28,1203.34 7127.95,1086.99 7356.09,1096.12C7634.89,1107.29 7760.77,1295.99 7760.77,1295.99C7795.6,1345.61 7791.04,1412.82 7749.82,1457.28C7098.13,2160.13 6346.17,3036.93 5768.66,4086.16C6010.91,4365.4 6162.67,4806.81 6231.09,5287.01C6340.58,6055.47 6239.86,6919.03 6014.4,7332.57L6014.26,7332.84C5951.89,7446.6 5879.9,7556.49 5800.54,7660.65C5796.62,7667.31 5792.05,7673.71 5786.81,7679.76C5783.63,7683.44 5780.45,7687.1 5777.28,7690.74C5546.04,7985.76 5256.27,8232.39 4961.37,8387.4C4826.09,8461.03 4701.19,8506.82 4587.42,8531.9C4528.42,8546.06 4470.14,8555.66 4413.03,8560.33L4412.96,8560.34C3847.46,8606.25 3163.82,8445.17 2531.79,7716.7L2531.55,7716.42C2259.46,7400.94 2140.2,6922.48 2101.54,6459.68C2045.63,5790.33 2152.92,5158.97 2152.92,5158.97C2164.8,5089.02 2231.23,5041.86 2301.19,5053.74C2371.14,5065.62 2418.3,5132.05 2406.42,5202.01C2406.42,5202.01 2304.64,5802.09 2357.78,6438.28C2391.82,6845.78 2486.62,7270.52 2726.14,7548.35C3065.21,7939.1 3419.83,8148.48 3758.14,8243.97ZM4475.81,8293.25C4563.41,8277.92 4653.1,8249.98 4743,8211.19C4980.28,8104.13 5263.32,7891.14 5590.46,7513.72C5664.09,7416.95 5730.9,7314.81 5788.71,7209.38C5996.41,6828.25 6077.42,6031.36 5976.53,5323.28C5910.92,4862.78 5770.24,4437.89 5522.06,4199.41C5480.48,4159.44 5470.6,4096.68 5497.89,4045.87C6065.23,2989.62 6809.02,2101.13 7468.18,1383.34C7332.42,1320.28 7020,1304.93 6469.32,1935.27C5725.12,2791.29 5378.49,3924.24 5291.74,4242.73C5603.28,4460.41 5739.42,4735.06 5807.65,5063.73C5821.4,5129.92 5781.53,5195.45 5716.43,5213.67C5716.43,5213.67 5209.51,5355.28 4972.08,5817.31C4971.98,5817.51 4971.87,5817.72 4971.76,5817.92C4769.25,6206.86 4859.91,6952.49 4859.91,6952.49C4864.49,6992.78 4849.79,7032.87 4820.25,7060.65C4613.84,7254.8 4391.6,7308.69 4159.57,7253.73C4171.99,7266.96 4185.84,7279.86 4201.3,7292.15C4310.57,7379 4492.06,7429.69 4788.44,7387.11C4835.81,7380.31 4883.04,7400.38 4911.02,7439.21C4939,7478.03 4943.1,7529.18 4921.66,7571.97C4816.45,7781.94 4634.25,7940.55 4400.44,7997.18C4250.32,8033.54 4076.94,8028.1 3887.83,7961.92C3925.79,8037.74 3975.38,8114.58 4037.68,8181.89C4105.11,8254.35 4255.75,8326.48 4475.81,8293.25Z"/>
        </g>
        <g transform="matrix(0.0402939,0,0,0.0402939,18581.1,1427.83)">
            <path d="M2270.61,7642C2280.64,7638.68 2291.24,7636.55 2302.27,7635.79C2314.85,7634.93 2327.14,7635.91 2338.87,7638.51L3363.98,7586.17C3434.85,7582.55 3495.32,7637.15 3498.94,7708.01C3502.56,7778.88 3447.96,7839.35 3377.1,7842.97L2448.57,7890.38L2486.41,8442.73C2488.79,8477.47 2476.97,8511.69 2453.67,8537.56C2430.37,8563.43 2397.56,8578.74 2362.76,8580L1931.13,8595.52C1894.03,8596.86 1858.17,8582.09 1832.77,8555.03C1807.36,8527.97 1794.89,8491.24 1798.57,8454.3C1798.57,8454.3 1815.23,8287.03 1815.23,8287.03L1711.64,8291.76L1756.35,8457.81C1766.47,8495.38 1759.02,8535.52 1736.1,8566.96C1713.18,8598.41 1677.25,8617.78 1638.38,8619.65L1202.81,8640.59C1132.93,8643.95 1073.18,8590.81 1068.38,8521L1021.29,7836.79C1018.92,7802.38 1030.48,7768.46 1053.37,7742.66C1076.25,7716.85 1108.55,7701.33 1142.99,7699.57L2270.61,7642ZM2191.74,7903.49L1286.8,7949.69C1286.8,7949.69 1316.25,8377.71 1316.25,8377.71L1466.55,8370.49L1421.73,8204.04C1411.6,8166.41 1419.09,8126.21 1442.08,8094.75C1465.07,8063.29 1501.1,8043.95 1540.03,8042.18L1952.04,8023.4C1989.34,8021.7 2025.53,8036.3 2051.21,8063.4C2076.89,8090.5 2089.53,8127.42 2085.82,8164.57L2069.03,8333.27L2220.8,8327.81L2191.74,7903.49Z"/>
        </g>
        <g transform="matrix(0.0369137,0,0,0.0402939,18600.3,1427.7)">
            <path d="M7740.2,7372.78C7769.37,7401.38 7792.29,7430.4 7807.99,7459C7808.15,7459.31 7808.32,7459.61 7808.48,7459.92C7931.9,7689.51 7913.78,7975.13 7709.65,8153.18C7580.73,8265.65 7371.97,8340.58 7060.95,8315.05L7060.9,8315.05C6439.92,8263.88 6225.65,7892.9 6156.34,7704.34L5080.36,7748.16C5006.15,7751.18 4943.23,7698.44 4939.93,7630.47C4936.63,7562.49 4994.2,7504.84 5068.4,7501.82C5068.4,7501.82 6136.67,7458.32 6136.67,7458.32C6156.36,7318.03 6205.21,7069.43 6320.21,6853.64C6448.52,6612.88 6656.92,6416.37 6973.58,6404.06C7276.52,6392.28 7513.34,6468.99 7670.09,6583.89C7935.64,6778.54 7990.49,7080.85 7780.69,7328.43C7768.5,7342.88 7754.96,7357.69 7740.2,7372.78ZM6500.8,7097.19C6568.47,7073.76 6645.53,7059.73 6728.88,7055.34C6965.29,7042.9 7254.5,7105.14 7471.55,7200.9C7489.33,7208.74 7506.61,7216.85 7523.37,7225.19C7539.86,7208.95 7554.74,7193.03 7567.76,7177.6L7567.97,7177.35C7777.34,6930.49 7496.79,6630.52 6984.99,6650.42C6774.73,6658.59 6647.28,6801.96 6562.08,6961.82C6538.59,7005.89 6518.31,7051.55 6500.8,7097.19ZM7543.95,7538.23C7359.18,7671.82 7119.24,7799.24 6902.98,7858.58C6797.73,7887.81 6696.85,7899.9 6606.76,7893.36C6710.59,7978.43 6862.86,8051.15 7085,8069.46C7293.66,8086.58 7437.54,8050.06 7524.05,7974.61C7642.92,7870.92 7638.99,7703.14 7567.14,7569.1C7561.26,7558.55 7553.44,7548.26 7543.95,7538.23ZM7299.64,7400.28C7129.26,7334.34 6919.37,7292.3 6744.32,7301.52C6645.03,7306.74 6556.6,7324.11 6509.98,7379.77C6483.84,7410.98 6476.87,7453.99 6484.84,7509.01C6493.47,7565.92 6512.6,7605.86 6548.74,7627.32C6617.2,7667.98 6717.08,7652.55 6824.97,7622.59C6825.12,7622.54 6825.28,7622.5 6825.44,7622.45C6982.49,7579.42 7154.91,7494.53 7299.64,7400.28Z"/>
        </g>
        <g transform="matrix(0.0402939,0,0,0.0402939,18577.4,1427.83)">
            <path d="M8316.73,7738.03C8354.59,7800.18 8375.82,7874.97 8360.55,7957.27C8350.05,8013.84 8321.96,8076.05 8261.84,8139.69C8149.94,8258.13 8047.87,8297.96 7959.28,8303.27C7832.48,8310.86 7722.35,8240.09 7625.11,8169.34C7567.73,8127.59 7555.04,8047.11 7596.78,7989.74C7638.53,7932.36 7719,7919.67 7776.38,7961.41C7802.82,7980.65 7830.08,8001.18 7858.93,8018.34C7885.21,8033.97 7912.5,8048.48 7943.9,8046.6C7983.93,8044.2 8024.38,8016.61 8074.93,7963.1C8092.94,7944.05 8104.59,7927.3 8107.73,7910.36C8113.11,7881.36 8090.64,7859.85 8074.06,7842.45C8046.18,7813.2 8016.31,7795.8 8016.31,7795.8C7967.79,7768.33 7942.51,7712.71 7953.71,7658.09C7964.92,7603.47 8010.06,7562.29 8065.48,7556.14C8065.48,7556.14 8336.92,7527.38 8358.89,7262.88C8366.77,7144.26 8298.4,7079.01 8229.65,7042.42C8146.59,6998.22 8061.12,6989.53 8061.12,6989.53C8005.02,6984.12 7958.99,6942.79 7947.57,6887.6C7936.16,6832.4 7962.03,6776.21 8011.38,6748.99C8074.81,6714 8113.46,6666.06 8111.36,6615.34C8109.44,6568.92 8069.91,6532.02 8007.75,6510.27C7927.69,6482.26 7857.95,6518.65 7807.02,6556.46C7744.76,6602.68 7706.59,6657.09 7706.59,6657.09C7666.3,6715.5 7586.17,6730.2 7527.76,6689.91C7469.35,6649.62 7454.65,6569.49 7494.94,6511.08C7494.94,6511.08 7581.95,6384.63 7719.37,6307.26C7822.62,6249.13 7951.34,6218.13 8092.66,6267.56C8276.08,6331.73 8362.59,6467.71 8368.27,6604.7C8370.95,6669.31 8355.18,6736.91 8319.12,6799.84C8329.54,6804.69 8340,6809.88 8350.44,6815.43C8494.75,6892.23 8632.94,7032.45 8615.3,7282.22C8615.26,7282.67 8615.23,7283.13 8615.19,7283.58C8594.76,7534.91 8448.96,7668.24 8316.73,7738.03Z"/>
        </g>
        <g transform="matrix(0.0402939,0,0,0.0402939,18581.1,1427.83)">
            <path d="M3511.7,6490.01C3511.7,6490.01 3315.45,6484.42 3112.64,6394.97C2898.01,6300.29 2678.16,6116.06 2649.86,5763.4C2628.05,5491.06 2717.86,5354.48 2821.33,5299.12C2893.31,5260.6 2981.95,5254.13 3076.86,5281.88C3183.67,5313.11 3302.02,5390.35 3401.07,5494.98C3507.43,5607.06 3571.2,5773.29 3605.09,5934.41C3651.98,6157.31 3644.21,6366.19 3644.21,6366.19C3641.63,6436.9 3582.41,6492.23 3511.7,6490.01ZM3383.66,6213.57C3379.4,6149.24 3370.73,6069.41 3353.47,5987.35C3329.36,5872.72 3290.19,5751.66 3214.51,5671.94L3214.39,5671.8C3159.09,5613.38 3096.17,5565.74 3035.1,5539.69C3000.5,5524.92 2968.26,5512.12 2942.64,5525.83C2925.11,5535.21 2918.54,5557.66 2911.96,5587.62C2902.97,5628.52 2901.12,5679.84 2906.17,5742.85C2924.96,5976.9 3073.97,6096.87 3216.42,6159.71C3275.65,6185.84 3334.11,6202.7 3383.66,6213.57Z"/>
        </g>
    </g>
</svg>
