<?xml version="1.0" encoding="UTF-8" standalone="no"?>
<!DOCTYPE svg PUBLIC "-//W3C//DTD SVG 1.1//EN" "http://www.w3.org/Graphics/SVG/1.1/DTD/svg11.dtd">
<svg width="100%" height="100%" viewBox="0 0 500 500" version="1.1" xmlns="http://www.w3.org/2000/svg" xmlns:xlink="http://www.w3.org/1999/xlink" xml:space="preserve" xmlns:serif="http://www.serif.com/" style="fill-rule:evenodd;clip-rule:evenodd;stroke-linecap:round;stroke-linejoin:round;stroke-miterlimit:1.5;">
    <rect x="-18.587" y="-29.74" width="552.045" height="558.55" style="stroke:rgb(64,63,73);stroke-width:1px;"/>
    <g id="Ebene1">
        <g transform="matrix(1,0,0,1,2,0)">
            <path d="M132.931,396.384C134.647,396.894 136.063,397.892 137.176,399.376C138.29,400.861 138.916,402.926 139.055,405.571C139.195,408.076 139.299,410.42 139.369,412.6C139.438,414.781 139.496,417.124 139.543,419.63C139.589,420.929 139.206,421.95 138.394,422.692C137.582,423.435 136.527,423.852 135.227,423.945C133.975,424.038 132.884,423.713 131.956,422.971C131.028,422.228 130.495,421.254 130.356,420.047C130.263,419.212 130.228,418.342 130.251,417.437C130.274,416.533 130.263,415.616 130.216,414.688C130.124,413.157 130.054,411.777 130.008,410.547C129.961,409.318 129.845,407.96 129.66,406.476C129.52,405.037 128.94,404.028 127.92,403.448C126.899,402.868 125.6,402.462 124.022,402.23C123.976,402.555 123.941,402.868 123.918,403.17C123.894,403.471 123.883,403.761 123.883,404.04C123.836,406.267 123.813,408.471 123.813,410.652L123.813,417.333C123.813,417.797 123.802,418.226 123.778,418.621C123.755,419.015 123.72,419.398 123.674,419.769C123.442,421.3 122.85,422.414 121.899,423.11C120.948,423.806 119.73,424.107 118.245,424.014C116.946,423.922 115.937,423.435 115.218,422.553C114.499,421.671 114.139,420.511 114.139,419.073C114.278,412.02 114.336,405.06 114.313,398.193C114.29,391.326 114.255,384.436 114.209,377.522L114.209,366.595C114.209,364.832 114.765,363.521 115.879,362.663C116.993,361.805 118.431,361.515 120.194,361.793C121.586,362.025 122.932,362.071 124.231,361.932C127.154,361.747 129.671,362.245 131.782,363.429C133.893,364.612 135.645,366.456 137.037,368.962C139.914,373.926 140.633,379.216 139.195,384.83C138.684,387.011 137.919,389.064 136.898,390.99C135.877,392.915 134.555,394.713 132.931,396.384ZM123.952,390.398C124.927,390.445 125.774,390.166 126.493,389.563C127.212,388.96 127.804,388.217 128.268,387.336C128.732,386.454 129.103,385.526 129.381,384.552C129.66,383.578 129.868,382.696 130.008,381.907C130.379,380.144 130.437,378.474 130.182,376.896C129.926,375.318 129.312,373.764 128.337,372.233C127.224,370.563 125.762,370.029 123.952,370.632L123.952,390.398ZM145.667,371.606C145.946,370.215 146.421,368.915 147.094,367.709C147.767,366.503 148.602,365.435 149.6,364.507C150.597,363.579 151.722,362.814 152.975,362.211C154.228,361.607 155.597,361.213 157.082,361.027C158.427,360.842 159.738,360.935 161.014,361.306C162.29,361.677 163.508,362.211 164.668,362.907C166.756,364.345 168.31,365.992 169.331,367.848C170.352,369.704 171.048,371.746 171.419,373.973C171.697,375.597 171.895,377.209 172.011,378.81C172.127,380.411 172.231,382.023 172.324,383.647C172.556,387.777 172.683,391.918 172.707,396.071C172.73,400.223 172.509,404.341 172.045,408.424C171.86,410.002 171.593,411.51 171.245,412.948C170.897,414.387 170.398,415.779 169.749,417.124C168.913,418.841 167.916,420.245 166.756,421.335C165.596,422.425 164.32,423.226 162.928,423.736C161.536,424.246 160.063,424.513 158.508,424.536C156.954,424.56 155.411,424.362 153.88,423.945C151.792,423.527 150.11,422.623 148.834,421.231C147.558,419.839 146.595,418.261 145.946,416.498C145.296,414.967 144.832,413.412 144.554,411.835C144.275,410.257 144.09,408.633 143.997,406.963C143.904,403.993 143.835,401.012 143.788,398.019C143.742,395.027 143.753,392.057 143.823,389.111C143.893,386.164 144.067,383.23 144.345,380.306C144.623,377.383 145.064,374.483 145.667,371.606ZM162.232,376.2C162.093,374.205 161.652,372.743 160.909,371.815C160.167,370.887 159.378,370.435 158.543,370.458C157.708,370.481 156.919,370.969 156.177,371.92C155.434,372.871 154.97,374.228 154.785,375.991C154.506,379.146 154.298,382.151 154.158,385.004C154.019,387.858 153.926,390.63 153.88,393.321C153.834,396.013 153.822,398.622 153.845,401.151C153.868,403.68 153.903,406.197 153.95,408.703C153.95,410.883 154.332,412.542 155.098,413.679C155.864,414.816 156.745,415.407 157.743,415.454C158.74,415.5 159.68,414.99 160.561,413.923C161.443,412.855 162,411.208 162.232,408.981C162.789,403.088 163.09,397.451 163.137,392.069C163.183,386.686 162.881,381.397 162.232,376.2ZM177.822,401.464C177.915,400.629 178.182,399.91 178.622,399.307C179.063,398.704 179.608,398.228 180.258,397.88C180.908,397.532 181.615,397.358 182.381,397.358C183.146,397.358 183.9,397.544 184.643,397.915C186.267,398.75 187.079,400.096 187.079,401.952L187.079,409.26C187.079,410.234 187.148,411.208 187.287,412.183C187.566,413.899 188.563,414.781 190.28,414.827C190.837,414.874 191.301,414.769 191.672,414.514C192.043,414.259 192.333,413.934 192.542,413.54C192.751,413.145 192.902,412.705 192.995,412.217C193.087,411.73 193.134,411.278 193.134,410.86C193.041,409.654 192.96,408.413 192.89,407.137C192.821,405.861 192.739,404.596 192.647,403.344C192.554,401.905 192.159,400.629 191.463,399.516C190.767,398.402 189.839,397.404 188.679,396.523C187.705,395.734 186.765,394.957 185.861,394.191C184.956,393.426 183.993,392.672 182.972,391.929C178.472,388.728 176.36,384.366 176.639,378.845C176.732,377.917 176.79,376.977 176.813,376.026C176.836,375.075 176.894,374.089 176.987,373.068C177.126,371.676 177.474,370.319 178.031,368.997C178.588,367.674 179.318,366.468 180.223,365.377C181.128,364.287 182.172,363.405 183.355,362.733C184.538,362.06 185.826,361.677 187.218,361.584C188.424,361.538 189.619,361.538 190.802,361.584C191.985,361.631 193.157,361.816 194.317,362.141C196.544,362.744 198.238,363.835 199.398,365.412C200.558,366.99 201.323,368.846 201.694,370.98C201.926,372.558 202.066,374.17 202.112,375.817C202.158,377.464 202.182,379.1 202.182,380.724C202.182,382.023 201.729,383.09 200.824,383.926C199.92,384.761 198.818,385.178 197.519,385.178C196.312,385.178 195.257,384.784 194.352,383.995C193.447,383.206 192.948,382.162 192.855,380.863C192.763,379.842 192.705,378.856 192.681,377.905C192.658,376.954 192.623,376.014 192.577,375.086C192.531,374.808 192.507,374.53 192.507,374.251C192.507,373.973 192.484,373.718 192.438,373.486C192.159,371.908 191.347,371.096 190.002,371.05C189.12,371.003 188.366,371.154 187.74,371.502C187.113,371.85 186.754,372.418 186.661,373.207C186.522,374.692 186.441,376.154 186.418,377.592C186.394,379.03 186.429,380.492 186.522,381.977C186.568,382.394 186.777,382.824 187.148,383.264C187.519,383.705 187.891,384.111 188.262,384.482C189.19,385.225 190.129,385.955 191.081,386.675C192.032,387.394 192.995,388.125 193.969,388.867C199.305,392.718 202.089,397.938 202.321,404.527C202.367,406.058 202.425,407.566 202.495,409.051C202.564,410.536 202.622,412.043 202.669,413.575C202.715,414.92 202.553,416.138 202.182,417.229C201.81,418.319 201.3,419.27 200.65,420.082C200.001,420.894 199.259,421.579 198.423,422.135C197.588,422.692 196.73,423.11 195.848,423.388C194.039,423.991 192.217,424.316 190.385,424.362C188.552,424.409 186.754,424.246 184.991,423.875C183.042,423.551 181.418,422.541 180.119,420.848C178.82,419.154 178.077,417.194 177.892,414.967C177.752,412.739 177.718,410.489 177.787,408.216C177.857,405.942 177.868,403.692 177.822,401.464ZM216.38,400.142C216.38,401.256 216.368,402.369 216.345,403.483C216.322,404.596 216.357,405.71 216.449,406.824C216.542,407.798 216.612,408.772 216.658,409.747C216.705,410.721 216.867,411.591 217.145,412.357C217.424,413.122 217.899,413.725 218.572,414.166C219.245,414.607 220.277,414.781 221.669,414.688C222.319,414.642 223.015,414.572 223.757,414.479C224.5,414.387 225.196,414.34 225.845,414.34C226.402,414.34 226.97,414.352 227.55,414.375C228.13,414.398 228.699,414.479 229.256,414.619C230.972,415.175 231.947,416.405 232.179,418.307C232.272,419.235 232.109,420.036 231.692,420.709C231.274,421.381 230.671,421.903 229.882,422.275C229.65,422.507 229.36,422.669 229.012,422.762C228.664,422.855 228.304,422.924 227.933,422.971C226.402,423.156 224.79,423.319 223.096,423.458C221.403,423.597 219.813,423.713 218.329,423.806C216.055,423.898 214.187,423.539 212.726,422.727C211.264,421.915 210.116,420.72 209.281,419.143C208.446,417.565 207.842,415.639 207.471,413.366C207.1,411.092 206.868,408.564 206.775,405.78C206.636,402.021 206.613,398.274 206.706,394.539C206.798,390.804 206.891,387.057 206.984,383.299C207.077,380.469 207.332,377.696 207.75,374.982C208.167,372.268 208.91,369.681 209.977,367.222C211.462,363.695 214.06,361.863 217.772,361.723C219.349,361.677 221.02,361.677 222.783,361.723C225.103,361.816 227.11,362.524 228.803,363.846C230.497,365.169 231.668,366.943 232.318,369.171C232.55,369.913 232.736,370.667 232.875,371.432C233.014,372.198 233.06,372.929 233.014,373.625C232.921,376.409 232.77,379.181 232.562,381.942C232.353,384.703 232.132,387.452 231.9,390.189C231.854,390.607 231.773,391.025 231.657,391.442C231.541,391.86 231.413,392.277 231.274,392.695C229.928,396.825 227.121,399.168 222.853,399.724C221.832,399.864 220.788,399.945 219.721,399.968C218.653,399.991 217.54,400.049 216.38,400.142ZM219.581,390.955C220.185,390.955 220.66,390.943 221.008,390.92C221.356,390.897 221.635,390.804 221.843,390.642C222.052,390.479 222.191,390.236 222.261,389.911C222.331,389.586 222.412,389.145 222.505,388.589C222.737,386.872 222.911,385.201 223.027,383.578C223.143,381.954 223.27,380.306 223.409,378.636C223.456,377.801 223.491,376.977 223.514,376.165C223.537,375.353 223.525,374.553 223.479,373.764C223.433,373.207 223.282,372.72 223.027,372.302C222.771,371.885 222.342,371.606 221.739,371.467C221.136,371.328 220.544,371.316 219.964,371.432C219.384,371.548 218.909,371.885 218.537,372.442C218.305,372.72 218.12,373.022 217.981,373.346C217.841,373.671 217.749,374.019 217.702,374.39C217.145,377.128 216.809,379.842 216.693,382.534C216.577,385.225 216.473,388.032 216.38,390.955L219.581,390.955ZM246.168,364.786C247.467,363.858 248.755,363.173 250.031,362.733C251.307,362.292 252.641,362.118 254.033,362.211C256.167,362.443 257.93,363.034 259.322,363.985C260.714,364.937 261.84,366.12 262.698,367.535C263.556,368.95 264.171,370.516 264.542,372.233C264.914,373.95 265.122,375.69 265.169,377.453C265.169,381.861 265.146,386.269 265.099,390.677L264.96,403.9C264.914,406.406 264.879,408.854 264.856,411.243C264.832,413.633 264.798,416.057 264.751,418.516L264.751,419.525C264.751,419.873 264.728,420.233 264.682,420.604C264.45,421.857 263.893,422.82 263.011,423.493C262.13,424.165 261.086,424.478 259.879,424.432C258.673,424.386 257.675,424.026 256.886,423.353C256.098,422.681 255.61,421.741 255.425,420.535C255.332,420.024 255.286,419.537 255.286,419.073L255.286,417.611C255.378,412.322 255.471,407.114 255.564,401.986C255.657,396.859 255.75,391.628 255.842,386.292C255.889,384.575 255.877,382.847 255.808,381.107C255.738,379.367 255.657,377.615 255.564,375.852C255.518,375.295 255.425,374.715 255.286,374.112C255.146,373.509 254.926,372.94 254.624,372.407C254.323,371.873 253.94,371.444 253.476,371.119C253.012,370.795 252.479,370.632 251.875,370.632C250.947,370.632 250.17,371.05 249.544,371.885C248.917,372.72 248.407,373.694 248.013,374.808C247.618,375.922 247.328,377.047 247.143,378.184C246.957,379.32 246.841,380.214 246.795,380.863C246.702,382.348 246.632,383.786 246.586,385.178C246.539,386.57 246.493,388.009 246.447,389.493C246.447,391.953 246.435,394.412 246.412,396.871C246.389,399.33 246.423,401.766 246.516,404.179C246.609,406.638 246.725,408.923 246.864,411.034C247.003,413.145 247.119,415.384 247.212,417.751C247.259,418.215 247.282,418.69 247.282,419.177C247.282,419.665 247.235,420.163 247.143,420.674C246.911,421.834 246.342,422.75 245.437,423.423C244.533,424.096 243.431,424.386 242.131,424.293C241.064,424.2 240.113,423.794 239.278,423.075C238.443,422.356 237.979,421.393 237.886,420.187C237.7,417.681 237.538,415.291 237.399,413.018C237.26,410.744 237.144,408.285 237.051,405.64C236.958,403.088 236.935,400.513 236.981,397.915C237.028,395.317 237.028,392.695 236.981,390.05C236.935,386.106 236.888,382.197 236.842,378.323C236.796,374.448 236.749,370.586 236.703,366.735L236.703,364.855C236.842,363.649 237.26,362.675 237.956,361.932C238.652,361.19 239.51,360.726 240.531,360.54C241.644,360.355 242.665,360.517 243.593,361.027C244.521,361.538 245.217,362.373 245.681,363.533C245.82,363.811 245.983,364.229 246.168,364.786ZM279.297,405.988C279.344,407.148 279.378,408.239 279.402,409.26C279.425,410.28 279.448,411.278 279.471,412.252L279.541,415.175C279.564,416.15 279.599,417.194 279.645,418.307C279.645,418.679 279.657,419.015 279.68,419.317C279.703,419.618 279.692,419.931 279.645,420.256C279.506,421.37 279.054,422.286 278.288,423.005C277.523,423.725 276.583,424.154 275.469,424.293C274.309,424.386 273.277,424.154 272.372,423.597C271.467,423.04 270.853,422.251 270.528,421.231C270.249,420.674 270.11,419.955 270.11,419.073C270.017,410.999 269.925,403.146 269.832,395.514C269.739,387.881 269.646,380.051 269.553,372.024C269.507,371.189 269.472,370.354 269.449,369.519C269.426,368.683 269.437,367.848 269.484,367.013C269.53,365.25 270.017,363.904 270.945,362.976C271.873,362.048 273.219,361.584 274.982,361.584C277.302,361.631 279.692,361.839 282.151,362.211C283.914,362.489 285.468,363.092 286.814,364.02C288.16,364.948 289.32,366.131 290.294,367.57C291.361,368.962 292.185,370.447 292.765,372.024C293.345,373.602 293.751,375.272 293.983,377.035C294.307,379.541 294.423,382 294.331,384.413C294.238,386.825 293.82,389.285 293.078,391.79C292.428,394.389 291.373,396.674 289.911,398.646C288.45,400.618 286.582,402.253 284.308,403.552C283.566,404.063 282.766,404.48 281.907,404.805C281.049,405.13 280.179,405.524 279.297,405.988ZM279.089,370.563C278.949,374.878 278.891,379.135 278.915,383.334C278.938,387.533 279.019,391.813 279.158,396.175C280.643,395.34 281.745,394.307 282.464,393.078C283.183,391.848 283.705,390.537 284.03,389.145C284.54,387.289 284.819,385.41 284.865,383.508C284.912,381.606 284.796,379.68 284.517,377.731C284.378,376.757 284.158,375.817 283.856,374.912C283.554,374.008 283.102,373.161 282.499,372.372C282.128,371.862 281.675,371.444 281.142,371.119C280.608,370.795 279.924,370.609 279.089,370.563ZM313.229,382.742C313.322,381.026 313.345,379.297 313.298,377.557C313.252,375.817 312.997,374.112 312.533,372.442C312.301,371.514 311.686,370.806 310.688,370.319C309.691,369.832 308.635,369.704 307.522,369.936C306.826,370.122 306.118,370.249 305.399,370.319C304.68,370.389 303.972,370.307 303.276,370.075C302.441,369.751 301.768,369.31 301.258,368.753C300.747,368.196 300.492,367.477 300.492,366.595C300.399,364.739 301.258,363.463 303.067,362.767C304.598,362.118 306.199,361.677 307.87,361.445C309.447,361.259 311.002,361.364 312.533,361.758C314.064,362.153 315.456,362.767 316.709,363.603C317.961,364.438 319.04,365.447 319.945,366.63C320.85,367.813 321.465,369.124 321.789,370.563C322.068,371.815 322.288,373.08 322.451,374.356C322.613,375.632 322.671,376.919 322.625,378.218C322.532,382.766 322.416,387.255 322.277,391.686C322.137,396.117 321.975,400.583 321.789,405.084C321.697,407.079 321.65,409.039 321.65,410.965C321.65,412.89 321.627,414.851 321.581,416.846C321.534,417.31 321.499,417.774 321.476,418.238C321.453,418.702 321.418,419.189 321.372,419.699C321.14,420.767 320.687,421.648 320.015,422.344C319.342,423.04 318.495,423.481 317.474,423.667C315.015,423.991 312.614,424.142 310.271,424.119C307.928,424.096 305.619,423.783 303.346,423.179C300.84,422.669 298.833,421.625 297.325,420.047C295.817,418.47 294.901,416.451 294.576,413.992C293.741,407.032 294.228,400.026 296.038,392.973C296.455,391.581 297.059,390.189 297.847,388.797C299.1,386.57 300.933,384.865 303.346,383.682C305.758,382.499 308.334,382.093 311.071,382.464C311.442,382.51 311.79,382.557 312.115,382.603C312.44,382.65 312.811,382.696 313.229,382.742ZM312.811,391.929C312.626,391.837 312.475,391.767 312.359,391.721C312.243,391.674 312.138,391.605 312.046,391.512C308.566,389.981 306.269,390.955 305.155,394.435C305.109,394.528 305.086,394.632 305.086,394.748C305.086,394.864 305.062,394.992 305.016,395.131C304.366,397.497 303.972,399.84 303.833,402.16C303.694,404.48 303.624,406.847 303.624,409.26C303.578,409.816 303.601,410.385 303.694,410.965C303.786,411.545 303.879,412.136 303.972,412.739C304.111,414.456 305.039,415.361 306.756,415.454C307.638,415.547 308.519,415.581 309.401,415.558C310.282,415.535 311.187,415.523 312.115,415.523C312.208,411.579 312.324,407.682 312.463,403.831C312.602,399.98 312.718,396.013 312.811,391.929ZM327.636,401.464C327.729,400.629 327.995,399.91 328.436,399.307C328.877,398.704 329.422,398.228 330.072,397.88C330.721,397.532 331.429,397.358 332.194,397.358C332.96,397.358 333.714,397.544 334.456,397.915C336.08,398.75 336.892,400.096 336.892,401.952L336.892,409.26C336.892,410.234 336.962,411.208 337.101,412.183C337.38,413.899 338.377,414.781 340.094,414.827C340.651,414.874 341.115,414.769 341.486,414.514C341.857,414.259 342.147,413.934 342.356,413.54C342.565,413.145 342.715,412.705 342.808,412.217C342.901,411.73 342.947,411.278 342.947,410.86C342.855,409.654 342.773,408.413 342.704,407.137C342.634,405.861 342.553,404.596 342.46,403.344C342.367,401.905 341.973,400.629 341.277,399.516C340.581,398.402 339.653,397.404 338.493,396.523C337.519,395.734 336.579,394.957 335.674,394.191C334.77,393.426 333.807,392.672 332.786,391.929C328.285,388.728 326.174,384.366 326.453,378.845C326.545,377.917 326.603,376.977 326.627,376.026C326.65,375.075 326.708,374.089 326.801,373.068C326.94,371.676 327.288,370.319 327.845,368.997C328.401,367.674 329.132,366.468 330.037,365.377C330.942,364.287 331.986,363.405 333.169,362.733C334.352,362.06 335.64,361.677 337.032,361.584C338.238,361.538 339.433,361.538 340.616,361.584C341.799,361.631 342.971,361.816 344.131,362.141C346.358,362.744 348.051,363.835 349.211,365.412C350.371,366.99 351.137,368.846 351.508,370.98C351.74,372.558 351.879,374.17 351.926,375.817C351.972,377.464 351.995,379.1 351.995,380.724C351.995,382.023 351.543,383.09 350.638,383.926C349.733,384.761 348.631,385.178 347.332,385.178C346.126,385.178 345.07,384.784 344.165,383.995C343.261,383.206 342.762,382.162 342.669,380.863C342.576,379.842 342.518,378.856 342.495,377.905C342.472,376.954 342.437,376.014 342.391,375.086C342.344,374.808 342.321,374.53 342.321,374.251C342.321,373.973 342.298,373.718 342.251,373.486C341.973,371.908 341.161,371.096 339.816,371.05C338.934,371.003 338.18,371.154 337.554,371.502C336.927,371.85 336.568,372.418 336.475,373.207C336.336,374.692 336.254,376.154 336.231,377.592C336.208,379.03 336.243,380.492 336.336,381.977C336.382,382.394 336.591,382.824 336.962,383.264C337.333,383.705 337.704,384.111 338.076,384.482C339.004,385.225 339.943,385.955 340.894,386.675C341.845,387.394 342.808,388.125 343.783,388.867C349.119,392.718 351.903,397.938 352.135,404.527C352.181,406.058 352.239,407.566 352.309,409.051C352.378,410.536 352.436,412.043 352.483,413.575C352.529,414.92 352.367,416.138 351.995,417.229C351.624,418.319 351.114,419.27 350.464,420.082C349.815,420.894 349.072,421.579 348.237,422.135C347.402,422.692 346.543,423.11 345.662,423.388C343.852,423.991 342.031,424.316 340.198,424.362C338.366,424.409 336.568,424.246 334.804,423.875C332.856,423.551 331.232,422.541 329.932,420.848C328.633,419.154 327.891,417.194 327.705,414.967C327.566,412.739 327.531,410.489 327.601,408.216C327.671,405.942 327.682,403.692 327.636,401.464ZM357.006,401.464C357.099,400.629 357.366,399.91 357.807,399.307C358.248,398.704 358.793,398.228 359.442,397.88C360.092,397.532 360.8,397.358 361.565,397.358C362.331,397.358 363.085,397.544 363.827,397.915C365.451,398.75 366.263,400.096 366.263,401.952L366.263,409.26C366.263,410.234 366.333,411.208 366.472,412.183C366.75,413.899 367.748,414.781 369.465,414.827C370.021,414.874 370.485,414.769 370.857,414.514C371.228,414.259 371.518,413.934 371.727,413.54C371.935,413.145 372.086,412.705 372.179,412.217C372.272,411.73 372.318,411.278 372.318,410.86C372.225,409.654 372.144,408.413 372.075,407.137C372.005,405.861 371.924,404.596 371.831,403.344C371.738,401.905 371.344,400.629 370.648,399.516C369.952,398.402 369.024,397.404 367.864,396.523C366.89,395.734 365.95,394.957 365.045,394.191C364.14,393.426 363.178,392.672 362.157,391.929C357.656,388.728 355.545,384.366 355.823,378.845C355.916,377.917 355.974,376.977 355.997,376.026C356.02,375.075 356.078,374.089 356.171,373.068C356.31,371.676 356.658,370.319 357.215,368.997C357.772,367.674 358.503,366.468 359.408,365.377C360.312,364.287 361.356,363.405 362.54,362.733C363.723,362.06 365.01,361.677 366.402,361.584C367.609,361.538 368.803,361.538 369.987,361.584C371.17,361.631 372.341,361.816 373.501,362.141C375.729,362.744 377.422,363.835 378.582,365.412C379.742,366.99 380.508,368.846 380.879,370.98C381.111,372.558 381.25,374.17 381.296,375.817C381.343,377.464 381.366,379.1 381.366,380.724C381.366,382.023 380.914,383.09 380.009,383.926C379.104,384.761 378.002,385.178 376.703,385.178C375.497,385.178 374.441,384.784 373.536,383.995C372.631,383.206 372.133,382.162 372.04,380.863C371.947,379.842 371.889,378.856 371.866,377.905C371.843,376.954 371.808,376.014 371.761,375.086C371.715,374.808 371.692,374.53 371.692,374.251C371.692,373.973 371.669,373.718 371.622,373.486C371.344,371.908 370.532,371.096 369.186,371.05C368.305,371.003 367.551,371.154 366.924,371.502C366.298,371.85 365.938,372.418 365.846,373.207C365.706,374.692 365.625,376.154 365.602,377.592C365.579,379.03 365.614,380.492 365.706,381.977C365.753,382.394 365.962,382.824 366.333,383.264C366.704,383.705 367.075,384.111 367.446,384.482C368.374,385.225 369.314,385.955 370.265,386.675C371.216,387.394 372.179,388.125 373.153,388.867C378.489,392.718 381.273,397.938 381.505,404.527C381.552,406.058 381.61,407.566 381.679,409.051C381.749,410.536 381.807,412.043 381.853,413.575C381.9,414.92 381.737,416.138 381.366,417.229C380.995,418.319 380.485,419.27 379.835,420.082C379.185,420.894 378.443,421.579 377.608,422.135C376.773,422.692 375.914,423.11 375.033,423.388C373.223,423.991 371.402,424.316 369.569,424.362C367.736,424.409 365.938,424.246 364.175,423.875C362.226,423.551 360.602,422.541 359.303,420.848C358.004,419.154 357.262,417.194 357.076,414.967C356.937,412.739 356.902,410.489 356.972,408.216C357.041,405.942 357.053,403.692 357.006,401.464Z" style="fill:white;"/>
        </g>
        <path d="M185.474,310.057C185.296,309.755 185.149,309.486 185.039,309.261C180.456,299.846 178.076,288.542 177.152,277.48C175.985,263.507 177.016,250.047 177.894,242.288L178.781,233.567L178.15,227.864L173.076,218.819C173.049,218.771 173.023,218.723 172.998,218.675L162.071,197.612C148.876,174.92 128.677,140.162 120.612,116.527C118.198,109.453 116.842,103.219 116.722,98.341C116.601,93.431 117.7,89.488 119.556,86.577C125.51,77.24 134.583,71.456 145.044,70.577C154.755,69.76 166.02,73.213 177.074,83.336C194.372,99.068 213.45,143.683 220.408,194.484C229.591,192.377 243.635,190.528 258.946,193.427C262.012,178.821 269.616,150.727 285.817,127.888C299.745,108.158 317.229,92.338 333.729,83.971C346.235,77.63 358.365,75.534 368.501,78.089C377.341,80.317 383.061,84.87 386.175,90.546C389.102,95.884 389.77,102.349 388.128,109.279C385.938,118.517 379.521,128.736 369.293,137.701C356.238,149.143 333.638,177.582 319.986,197.656C315.018,204.962 311.202,210.958 309.935,214.343C313.087,221.824 315.304,230.489 316.6,239.58C318.296,251.489 318.315,257.606 317.275,275.503C317.259,275.771 317.229,276.074 317.186,276.408C314.792,278.437 312.749,280.918 311.033,283.676C313.316,270.018 314.185,254.302 311.65,240.286C309.961,230.946 307.955,221.966 304.526,214.457C304.693,214.178 304.829,213.875 304.927,213.55C305.976,210.079 310.149,203.23 315.852,194.845C329.726,174.443 352.73,145.569 365.997,133.941C388.178,114.5 391.308,88.995 367.279,82.937C358.149,80.636 347.256,82.718 335.991,88.431C320.101,96.488 303.31,111.776 289.899,130.777C272.046,155.94 264.983,187.692 262.868,199.423C243.031,194.301 224.685,198.238 216.168,200.76C210.079,149.096 191.144,102.881 173.701,87.027C163.93,78.077 154.047,74.837 145.463,75.559C136.544,76.309 128.849,81.305 123.772,89.265C122.363,91.475 121.628,94.491 121.72,98.218C121.83,102.699 123.126,108.414 125.344,114.913C133.422,138.586 153.847,173.519 166.883,195.941C166.886,195.947 166.89,195.952 166.893,195.958C178.254,215.281 184.242,227.183 184.242,227.183C185.034,228.759 186.722,229.59 188.377,229.37C188.811,229.312 189.243,229.182 189.656,228.974C191.644,227.975 192.447,225.549 191.447,223.56C191.447,223.56 185.376,211.483 173.85,191.88C161.041,169.849 140.912,135.565 132.976,112.308C131.076,106.739 129.877,101.86 129.782,98.02C129.737,96.198 129.883,94.681 130.572,93.601C134.233,87.86 139.706,84.136 146.139,83.595C152.906,83.026 160.557,85.921 168.26,92.979C168.264,92.983 168.268,92.987 168.273,92.991C185.463,108.609 203.523,155.349 208.692,206.583C208.82,207.849 209.539,208.981 210.631,209.636C211.723,210.291 213.06,210.391 214.237,209.907C214.237,209.907 238.734,199.859 264.863,208.403C266.004,208.776 267.252,208.621 268.267,207.98C269.283,207.34 269.96,206.28 270.114,205.089C270.114,205.089 275.251,165.355 296.479,135.439L296.485,135.43C309.065,117.607 324.734,103.181 339.638,95.623C348.903,90.925 357.798,88.864 365.307,90.757C370.135,91.974 373.317,94.184 374.837,97.276C376.379,100.411 376.192,104.266 374.834,108.374C372.713,114.791 367.741,121.689 360.682,127.876C347.071,139.806 323.417,169.38 309.183,190.31C305.08,196.343 301.762,201.704 299.615,205.783C298.828,204.669 298.005,203.613 297.146,202.623C315.259,169.717 338.843,142.217 359.281,120.174C360.574,118.78 360.717,116.672 359.625,115.116C359.625,115.116 355.677,109.197 346.933,108.847C339.778,108.561 328.466,112.21 313.045,129.863L313.038,129.871C284.347,162.871 273.636,208.404 273.636,208.404C273.237,210.1 273.973,211.86 275.46,212.767C283.609,217.743 287.544,224.049 289.656,231.553C283.609,234.057 271.583,240.408 264.994,253.225C259.058,264.642 259.957,284.675 260.446,291.263C254.547,295.832 248.068,295.039 241.345,291.048C240.083,290.299 238.514,290.294 237.248,291.036C235.982,291.779 235.219,293.15 235.256,294.617C235.256,294.617 235.416,303.481 242.972,309.486C246.284,312.118 251.114,314.301 258.22,314.644C256.51,315.945 254.536,316.914 252.337,317.447C247.046,318.728 238.711,318.328 231.468,313.899C225.702,310.374 227.062,307.814 220.777,308.255L200.207,309.305C200.187,309.278 200.167,309.251 200.148,309.224C193.787,300.549 191.161,288.239 190.171,276.393C188.505,256.44 191.697,237.62 191.697,237.62C192.047,235.558 190.762,233.593 188.785,233.055C188.658,233.021 188.529,232.992 188.396,232.97C186.202,232.597 184.119,234.076 183.746,236.27C183.746,236.27 180.381,256.071 182.135,277.064C183.098,288.595 185.657,300.436 190.946,309.778L188.877,309.883C188.337,309.807 187.776,309.785 187.206,309.825C186.734,309.857 186.275,309.93 185.831,310.039L185.828,310.039L185.474,310.057ZM226.362,278.015C228.579,278.085 230.437,276.349 230.517,274.132C230.517,274.132 230.761,267.581 229.291,260.59C228.228,255.537 226.226,250.326 222.892,246.808C219.783,243.529 216.074,241.104 212.724,240.125C209.747,239.254 206.967,239.457 204.71,240.665C201.464,242.402 198.647,246.685 199.332,255.227C200.219,266.287 207.114,272.065 213.846,275.034C220.206,277.84 226.362,278.015 226.362,278.015ZM300.222,320.229C299.873,320.673 299.53,321.067 299.195,321.407C291.257,329.47 283.103,337.239 274.201,341.924C269.509,344.475 265.17,346.052 261.26,346.918C259.155,347.423 257.075,347.763 255.038,347.93L255.032,347.93C237.989,349.314 217.722,345.188 198.405,326.666L198.355,326.669L197.282,325.589L204.221,325.234C221.434,340.579 239.271,344.149 254.426,342.963C254.493,342.958 254.56,342.952 254.628,342.947L254.63,342.947C254.769,342.935 254.908,342.923 255.048,342.91C256.705,342.753 258.389,342.449 260.099,342.055C263.66,341.235 267.585,339.832 271.827,337.523C279.404,333.541 286.872,327.63 293.312,320.537L300.222,320.229ZM229.61,319.287C230.689,323.08 231.547,328.533 238.986,335.17C229.424,333.563 221.558,329.034 215.229,324.672L208.041,317.699L217.704,316.127C219.911,317.831 222.8,313.195 223.748,314.197C226.124,316.707 227.695,318.326 229.61,319.287Z" style="fill:white;"/>
        <path d="M352.559,328.885C352.454,328.991 352.346,329.096 352.237,329.2C348.659,332.607 342.851,334.829 334.218,334.055C316.167,332.432 310.391,320.28 308.692,314.802L276.995,316.211C275.341,316.285 273.939,315.001 273.865,313.347C273.792,311.693 275.075,310.29 276.729,310.217L308.272,308.815C308.763,304.648 310.112,296.414 313.574,289.323C317.132,282.035 322.877,276.04 331.659,275.667C338.856,275.362 344.725,276.987 349.017,279.633C349.105,279.36 349.233,279.094 349.405,278.846C349.405,278.846 352.009,275.063 356.12,272.748C359.133,271.052 362.887,270.132 367.01,271.575C372.288,273.421 374.821,277.299 374.984,281.241C375.075,283.437 374.415,285.743 372.936,287.811C373.605,288.078 374.293,288.39 374.977,288.754C379.213,291.008 383.279,295.117 382.761,302.448C382.76,302.458 382.759,302.469 382.758,302.479C382.099,310.595 377.031,314.563 372.871,316.466C374.316,318.382 375.268,320.828 374.758,323.576C374.458,325.195 373.64,326.968 371.92,328.79C368.648,332.253 365.685,333.457 363.095,333.612C359.352,333.836 356.127,331.684 353.256,329.595C352.978,329.393 352.745,329.152 352.559,328.885ZM353.342,283.166C358.657,288.909 359.298,296.771 354.196,303.342C353.709,303.972 353.145,304.625 352.516,305.292C353.566,306.31 354.374,307.354 354.893,308.385C354.897,308.393 354.9,308.4 354.904,308.408C357.375,313.425 357.806,319.339 355.686,324.244C356.072,324.331 356.446,324.496 356.786,324.744C358.571,326.043 360.408,327.762 362.736,327.623C364.193,327.536 365.719,326.616 367.558,324.669C368.296,323.888 368.73,323.176 368.859,322.481C369.034,321.535 368.574,320.731 368.076,320.072C366.992,318.641 365.468,317.775 365.468,317.775C364.336,317.134 363.746,315.836 364.008,314.561C364.269,313.287 365.322,312.326 366.616,312.182C366.616,312.182 376.021,311.17 376.777,302.001C377.07,297.728 374.632,295.367 372.159,294.051C369.352,292.557 366.464,292.268 366.464,292.268C365.155,292.142 364.08,291.178 363.814,289.89C363.548,288.602 364.151,287.29 365.303,286.655C367.715,285.325 369.07,283.418 368.99,281.489C368.914,279.662 367.476,278.094 365.029,277.238C362.129,276.224 359.587,277.47 357.742,278.839C355.633,280.405 354.344,282.253 354.344,282.253C354.075,282.642 353.73,282.949 353.342,283.166ZM316.535,298.217C318.778,297.024 321.544,296.341 324.616,296.164C331.296,295.78 339.465,297.706 345.597,300.66C346.306,301.001 346.988,301.359 347.639,301.729C348.329,301.024 348.937,300.334 349.449,299.671L349.454,299.666C355.88,291.395 347.621,280.995 331.913,281.662C325.503,281.934 321.563,286.636 318.966,291.956C317.973,293.989 317.175,296.127 316.535,298.217ZM348.134,309.31C342.819,313.624 335.707,317.816 329.333,319.723C325.339,320.933 321.573,321.196 318.506,320.338C321.554,323.912 326.571,327.343 334.755,328.079C341.106,328.648 345.467,327.362 348.1,324.855C351.805,321.326 351.764,315.624 349.528,311.072C349.221,310.464 348.744,309.877 348.134,309.31ZM342.759,305.954C337.513,303.476 330.62,301.829 324.961,302.154C321.808,302.336 319.036,303.031 317.556,304.96C316.679,306.103 316.39,307.667 316.657,309.682C316.95,311.789 317.668,313.232 318.893,314.026C321.049,315.423 324.195,315.01 327.592,313.981L327.602,313.977C332.668,312.462 338.276,309.328 342.759,305.954ZM187.158,314.88C187.428,314.777 187.717,314.712 188.02,314.692C188.359,314.668 188.689,314.703 189,314.786L221.417,313.131C223.071,313.047 224.482,314.321 224.566,315.974C224.651,317.628 223.377,319.039 221.723,319.123L191.436,320.669L192.7,339.116C192.755,339.926 192.48,340.725 191.936,341.329C191.392,341.932 190.627,342.29 189.815,342.319L176.23,342.808C175.364,342.839 174.527,342.494 173.935,341.863C173.342,341.231 173.051,340.374 173.137,339.512L173.781,333.044L168.011,333.307L169.756,339.791C169.993,340.668 169.819,341.604 169.284,342.338C168.749,343.072 167.911,343.524 167.004,343.567L153.295,344.227C151.664,344.305 150.27,343.065 150.158,341.436L148.676,319.902C148.621,319.099 148.89,318.307 149.425,317.705C149.959,317.103 150.712,316.741 151.516,316.7L187.158,314.88ZM185.443,320.975L154.872,322.536L155.942,338.092L162.994,337.753L161.246,331.26C161.009,330.382 161.184,329.444 161.72,328.71C162.257,327.976 163.098,327.524 164.006,327.483L176.973,326.892C177.844,326.853 178.688,327.193 179.287,327.825C179.887,328.458 180.181,329.319 180.095,330.186L179.448,336.688L186.502,336.434L185.443,320.975Z" style="fill:white;"/>
    </g>
</svg>
