<?xml version="1.0" encoding="UTF-8" standalone="no"?>
<!DOCTYPE svg PUBLIC "-//W3C//DTD SVG 1.1//EN" "http://www.w3.org/Graphics/SVG/1.1/DTD/svg11.dtd">
<svg width="100%" height="100%" viewBox="0 0 2363 2363" version="1.1" xmlns="http://www.w3.org/2000/svg" xmlns:xlink="http://www.w3.org/1999/xlink" xml:space="preserve" xmlns:serif="http://www.serif.com/" style="fill-rule:evenodd;clip-rule:evenodd;stroke-linecap:round;stroke-linejoin:round;">
    <g transform="matrix(1,0,0,1,0,-2810.11)">
        <g id="hybrid-setups" transform="matrix(0.788433,0,0,1.11111,-263.835,2613.26)">
            <rect x="334.633" y="177.165" width="2996.08" height="2125.98" style="fill:none;"/>
            <g transform="matrix(3.05426,-4.52894e-32,-1.28083e-32,0.273646,-1616.99,49.0518)">
                <path d="M1608.99,568.833C1608.99,562.401 1608.34,557.179 1607.52,557.179L649.136,557.179C648.324,557.179 647.664,562.401 647.664,568.833L647.664,933.981C647.664,940.413 648.324,945.635 649.136,945.635L1607.52,945.635C1608.34,945.635 1608.99,940.413 1608.99,933.981L1608.99,568.833Z" style="fill:rgb(64,63,73);"/>
            </g>
            <g transform="matrix(1.26587,-1.83365e-32,-3.10812e-32,0.89825,-1002.14,-1052.79)">
                <g transform="matrix(50.5149,0,0,50.5149,2860.83,1473.55)">
                </g>
                <text x="1612.56px" y="1473.55px" style="font-family:'Nunito-Medium', 'Nunito';font-weight:500;font-size:50.515px;fill:white;">Hybrid Setups Using QKD and End t<tspan x="2437.06px " y="1473.55px ">o</tspan> End C<tspan x="2612.19px " y="1473.55px ">o</tspan>nnect<tspan x="2767.28px " y="1473.55px ">i</tspan>ons</text>
            </g>
            <g transform="matrix(2.64911,7.07753e-16,2.11199e-47,2.70294,-1156.39,-904.793)">
                <path d="M1608.99,568.977C1608.99,562.466 1601.39,557.179 1592.03,557.179L664.629,557.179C655.266,557.179 647.664,562.466 647.664,568.977L647.664,933.837C647.664,940.348 655.266,945.635 664.629,945.635L1592.03,945.635C1601.39,945.635 1608.99,940.348 1608.99,933.837L1608.99,568.977Z" style="fill:rgb(255,229,193);fill-opacity:0.5;"/>
            </g>
            <g transform="matrix(0.792626,0,0,0.792626,100.632,452.602)">
                <g transform="matrix(1.26834,0,0,0.631604,334.633,-1395.04)">
                    <rect x="329.114" y="3504.28" width="158.152" height="158.152" style="fill:rgb(160,159,164);"/>
                </g>
                <g transform="matrix(1.1242,0,0,0.9,397.369,-2380.58)">
                    <path d="M404.722,3469.6L524.723,3562.55L284.721,3562.55L404.722,3469.6Z" style="fill:rgb(160,159,164);"/>
                </g>
            </g>
            <g transform="matrix(0.415675,0,0,0.370427,531.345,1419.01)">
                <g transform="matrix(1.26834,0,0,0.631604,334.633,-1395.04)">
                    <rect x="329.114" y="3504.28" width="158.152" height="158.152" style="fill:rgb(160,159,164);"/>
                </g>
                <g transform="matrix(1.1242,0,0,0.9,397.369,-2380.58)">
                    <path d="M404.722,3469.6L524.723,3562.55L284.721,3562.55L404.722,3469.6Z" style="fill:rgb(160,159,164);"/>
                </g>
            </g>
            <g transform="matrix(0.669681,0,0,0.729215,289.3,411.775)">
                <g transform="matrix(0.64323,0,0,0.320314,974.212,-147.795)">
                    <rect x="329.114" y="3504.28" width="158.152" height="158.152" style="fill:rgb(160,159,164);"/>
                </g>
                <g transform="matrix(0.758786,0,0,0.10312,927.043,602.593)">
                    <rect x="329.114" y="3504.28" width="158.152" height="158.152" style="fill:rgb(160,159,164);"/>
                </g>
            </g>
            <g transform="matrix(0.669681,0,0,0.729215,700.36,277.387)">
                <g transform="matrix(0.64323,0,0,0.320314,974.212,-147.795)">
                    <rect x="329.114" y="3504.28" width="158.152" height="158.152" style="fill:rgb(160,159,164);"/>
                </g>
                <g transform="matrix(0.758786,0,0,0.10312,927.043,602.593)">
                    <rect x="329.114" y="3504.28" width="158.152" height="158.152" style="fill:rgb(160,159,164);"/>
                </g>
            </g>
            <g transform="matrix(0.669681,0,0,0.729215,1031.89,284.419)">
                <g transform="matrix(0.64323,0,0,0.320314,974.212,-147.795)">
                    <rect x="329.114" y="3504.28" width="158.152" height="158.152" style="fill:rgb(160,159,164);"/>
                </g>
                <g transform="matrix(0.758786,0,0,0.10312,927.043,602.593)">
                    <rect x="329.114" y="3504.28" width="158.152" height="158.152" style="fill:rgb(160,159,164);"/>
                </g>
            </g>
            <g transform="matrix(0.669681,0,0,0.729215,1221.08,110.539)">
                <g transform="matrix(0.64323,0,0,0.320314,974.212,-147.795)">
                    <rect x="329.114" y="3504.28" width="158.152" height="158.152" style="fill:rgb(160,159,164);"/>
                </g>
                <g transform="matrix(0.758786,0,0,0.10312,927.043,602.593)">
                    <rect x="329.114" y="3504.28" width="158.152" height="158.152" style="fill:rgb(160,159,164);"/>
                </g>
            </g>
            <g transform="matrix(0.669681,0,0,0.729215,712.972,552.911)">
                <g transform="matrix(0.64323,0,0,0.320314,974.212,-147.795)">
                    <rect x="329.114" y="3504.28" width="158.152" height="158.152" style="fill:rgb(160,159,164);"/>
                </g>
                <g transform="matrix(0.758786,0,0,0.10312,927.043,602.593)">
                    <rect x="329.114" y="3504.28" width="158.152" height="158.152" style="fill:rgb(160,159,164);"/>
                </g>
            </g>
            <g transform="matrix(0.669681,0,0,0.729215,1127.38,413.551)">
                <g transform="matrix(0.64323,0,0,0.320314,974.212,-147.795)">
                    <rect x="329.114" y="3504.28" width="158.152" height="158.152" style="fill:rgb(160,159,164);"/>
                </g>
                <g transform="matrix(0.758786,0,0,0.10312,927.043,602.593)">
                    <rect x="329.114" y="3504.28" width="158.152" height="158.152" style="fill:rgb(160,159,164);"/>
                </g>
            </g>
            <g transform="matrix(0.669681,0,0,0.729215,1464.32,521.587)">
                <g transform="matrix(0.64323,0,0,0.320314,974.212,-147.795)">
                    <rect x="329.114" y="3504.28" width="158.152" height="158.152" style="fill:rgb(160,159,164);"/>
                </g>
                <g transform="matrix(0.758786,0,0,0.10312,927.043,602.593)">
                    <rect x="329.114" y="3504.28" width="158.152" height="158.152" style="fill:rgb(160,159,164);"/>
                </g>
            </g>
            <g transform="matrix(0.669681,0,0,0.729215,1355.31,611.084)">
                <g transform="matrix(0.64323,0,0,0.320314,974.212,-147.795)">
                    <rect x="329.114" y="3504.28" width="158.152" height="158.152" style="fill:rgb(160,159,164);"/>
                </g>
                <g transform="matrix(0.758786,0,0,0.10312,927.043,602.593)">
                    <rect x="329.114" y="3504.28" width="158.152" height="158.152" style="fill:rgb(160,159,164);"/>
                </g>
            </g>
            <g transform="matrix(0.669681,0,0,0.729215,989.522,748.016)">
                <g transform="matrix(0.64323,0,0,0.320314,974.212,-147.795)">
                    <rect x="329.114" y="3504.28" width="158.152" height="158.152" style="fill:rgb(160,159,164);"/>
                </g>
                <g transform="matrix(0.758786,0,0,0.10312,927.043,602.593)">
                    <rect x="329.114" y="3504.28" width="158.152" height="158.152" style="fill:rgb(160,159,164);"/>
                </g>
            </g>
            <g transform="matrix(0.669681,0,0,0.729215,320.352,718.041)">
                <g transform="matrix(0.64323,0,0,0.320314,974.212,-147.795)">
                    <rect x="329.114" y="3504.28" width="158.152" height="158.152" style="fill:rgb(160,159,164);"/>
                </g>
                <g transform="matrix(0.758786,0,0,0.10312,927.043,602.593)">
                    <rect x="329.114" y="3504.28" width="158.152" height="158.152" style="fill:rgb(160,159,164);"/>
                </g>
            </g>
            <g transform="matrix(0.669681,0,0,0.729215,943.439,51.7718)">
                <g transform="matrix(0.64323,0,0,0.320314,974.212,-147.795)">
                    <rect x="329.114" y="3504.28" width="158.152" height="158.152" style="fill:rgb(160,159,164);"/>
                </g>
                <g transform="matrix(0.758786,0,0,0.10312,927.043,602.593)">
                    <rect x="329.114" y="3504.28" width="158.152" height="158.152" style="fill:rgb(160,159,164);"/>
                </g>
            </g>
            <g transform="matrix(0.669681,0,0,0.729215,1633.73,47.003)">
                <g transform="matrix(0.64323,0,0,0.320314,974.212,-147.795)">
                    <rect x="329.114" y="3504.28" width="158.152" height="158.152" style="fill:rgb(160,159,164);"/>
                </g>
                <g transform="matrix(0.758786,0,0,0.10312,927.043,602.593)">
                    <rect x="329.114" y="3504.28" width="158.152" height="158.152" style="fill:rgb(160,159,164);"/>
                </g>
            </g>
            <g transform="matrix(0.669681,0,0,0.729215,1817.1,207.78)">
                <g transform="matrix(0.64323,0,0,0.320314,974.212,-147.795)">
                    <rect x="329.114" y="3504.28" width="158.152" height="158.152" style="fill:rgb(160,159,164);"/>
                </g>
                <g transform="matrix(0.758786,0,0,0.10312,927.043,602.593)">
                    <rect x="329.114" y="3504.28" width="158.152" height="158.152" style="fill:rgb(160,159,164);"/>
                </g>
            </g>
            <g transform="matrix(0.669681,0,0,0.729215,1620.17,377.622)">
                <g transform="matrix(0.64323,0,0,0.320314,974.212,-147.795)">
                    <rect x="329.114" y="3504.28" width="158.152" height="158.152" style="fill:rgb(160,159,164);"/>
                </g>
                <g transform="matrix(0.758786,0,0,0.10312,927.043,602.593)">
                    <rect x="329.114" y="3504.28" width="158.152" height="158.152" style="fill:rgb(160,159,164);"/>
                </g>
            </g>
            <g transform="matrix(0.669681,0,0,0.729215,1768.82,415.339)">
                <g transform="matrix(0.64323,0,0,0.320314,974.212,-147.795)">
                    <rect x="329.114" y="3504.28" width="158.152" height="158.152" style="fill:rgb(160,159,164);"/>
                </g>
                <g transform="matrix(0.758786,0,0,0.10312,927.043,602.593)">
                    <rect x="329.114" y="3504.28" width="158.152" height="158.152" style="fill:rgb(160,159,164);"/>
                </g>
            </g>
            <g transform="matrix(0.533905,0,0,0.505399,370.542,1240.93)">
                <g transform="matrix(0.64323,0,0,0.320314,974.212,-147.795)">
                    <rect x="329.114" y="3504.28" width="158.152" height="158.152" style="fill:rgb(160,159,164);"/>
                </g>
                <g transform="matrix(0.758786,0,0,0.10312,927.043,602.593)">
                    <rect x="329.114" y="3504.28" width="158.152" height="158.152" style="fill:rgb(160,159,164);"/>
                </g>
            </g>
            <g transform="matrix(1.26834,0,0,0.9,575.292,-977.878)">
                <path d="M295.817,3041.12L325.122,2972.13" style="fill:none;stroke:rgb(160,159,164);stroke-width:4.17px;"/>
            </g>
            <g transform="matrix(0.792626,0,0,0.792626,2213.51,452.602)">
                <g transform="matrix(1.26834,0,0,0.631604,334.633,-1395.04)">
                    <rect x="329.114" y="3504.28" width="158.152" height="158.152" style="fill:rgb(160,159,164);"/>
                </g>
                <g transform="matrix(1.1242,0,0,0.9,397.369,-2380.58)">
                    <path d="M404.722,3469.6L524.723,3562.55L284.721,3562.55L404.722,3469.6Z" style="fill:rgb(160,159,164);"/>
                </g>
            </g>
            <g transform="matrix(1.26834,1.13397e-32,-1.61369e-32,0.9,-395.503,441.259)">
                <g transform="matrix(41.6667,0,0,41.6667,1596.02,1460.87)">
                </g>
                <text x="1182.77px" y="1460.87px" style="font-family:'Nunito-Medium', 'Nunito';font-weight:500;font-size:41.667px;fill:rgb(64,63,73);">net<tspan x="1244.02px 1278.85px " y="1460.87px 1460.87px ">wo</tspan>rk node (r<tspan x="1482.69px " y="1460.87px ">o</tspan>ut<tspan x="1544.27px 1566.52px 1582.44px " y="1460.87px 1460.87px 1460.87px ">er)</tspan></text>
            </g>
            <g transform="matrix(1.26834,7.71569e-33,-1.92332e-32,0.9,118.544,555.944)">
                <g transform="matrix(41.6667,0,0,41.6667,1679.28,1460.87)">
                </g>
                <text x="1217.99px" y="1460.87px" style="font-family:'Nunito-Medium', 'Nunito';font-weight:500;font-size:41.667px;fill:rgb(64,63,73);">E2E so<tspan x="1345.94px 1359.07px 1374.28px 1409.03px 1431.24px 1446.15px " y="1460.87px 1460.87px 1460.87px 1460.87px 1460.87px 1460.87px ">ftware</tspan> encr<tspan x="1561.19px 1582.74px 1606.99px 1622.24px " y="1460.87px 1460.87px 1460.87px 1460.87px ">ypti</tspan>on</text>
            </g>
            <g transform="matrix(1.26834,1.06378e-32,-1.53328e-32,0.9,-671.364,555.944)">
                <g transform="matrix(41.6667,0,0,41.6667,1571.56,1460.87)">
                </g>
                <text x="1203.6px" y="1460.87px" style="font-family:'Nunito-Medium', 'Nunito';font-weight:500;font-size:41.667px;fill:rgb(64,63,73);">ph<tspan x="1251.68px 1272.81px " y="1460.87px 1460.87px ">ys</tspan>ic<tspan x="1322.02px " y="1460.87px ">a</tspan>l c<tspan x="1386.6px " y="1460.87px ">o</tspan>nnect<tspan x="1514.52px " y="1460.87px ">i</tspan>on</text>
            </g>
            <g transform="matrix(1.26834,1.24756e-32,-1.3074e-32,0.9,1047.39,555.944)">
                <g transform="matrix(41.6667,0,0,41.6667,1501.61,1460.87)">
                </g>
                <text x="1209.9px" y="1460.87px" style="font-family:'Nunito-Medium', 'Nunito';font-weight:500;font-size:41.667px;fill:rgb(64,63,73);">QKD pr<tspan x="1349.82px 1372.95px 1387.65px " y="1460.87px 1460.87px 1460.87px ">ote</tspan>ct<tspan x="1444.57px " y="1460.87px ">i</tspan>on</text>
            </g>
            <g transform="matrix(1.26834,1.06378e-32,-1.53328e-32,0.9,787.949,441.259)">
                <g transform="matrix(41.6667,0,0,41.6667,1528.33,1460.87)">
                </g>
                <text x="1246.83px" y="1460.87px" style="font-family:'Nunito-Medium', 'Nunito';font-weight:500;font-size:41.667px;fill:rgb(64,63,73);">QKD encr<tspan x="1429.29px 1450.83px 1475.08px 1489.79px " y="1460.87px 1460.87px 1460.87px 1460.87px ">ypto</tspan>r</text>
            </g>
            <g transform="matrix(1.26834,2.00386e-32,-8.13961e-33,0.9,379.88,441.259)">
                <g transform="matrix(41.6667,0,0,41.6667,1361.77,1460.87)">
                </g>
                <text x="1210.72px" y="1460.87px" style="font-family:'Nunito-Medium', 'Nunito';font-weight:500;font-size:41.667px;fill:rgb(64,63,73);">at<tspan x="1247.14px " y="1460.87px ">t</tspan>ack<tspan x="1324.31px " y="1460.87px ">e</tspan>r</text>
            </g>
            <g transform="matrix(1.26834,5.15091e-32,-3.55251e-33,0.9,1323.3,-91.7184)">
                <g transform="matrix(50,0,0,50,1281.13,1467.05)">
                </g>
                <text x="1187.93px" y="1467.05px" style="font-family:'Nunito-Bold', 'Nunito';font-weight:700;font-size:50px;">Bob</text>
            </g>
            <g transform="matrix(1.26834,4.88051e-32,-3.74934e-33,0.9,-793.998,-91.7184)">
                <g transform="matrix(50,0,0,50,1296.07,1467.05)">
                </g>
                <text x="1179.97px" y="1467.05px" style="font-family:'Nunito-Bold', 'Nunito';font-weight:700;font-size:50px;">Alic<tspan x="1268.97px " y="1467.05px ">e</tspan></text>
            </g>
            <g transform="matrix(1.26834,0,0,0.9,304.696,-2229.79)">
                <path d="M640.875,3745.31L973.492,3897.42L1303.07,3741.87" style="fill:none;stroke:rgb(160,159,164);stroke-width:8.33px;"/>
            </g>
            <g transform="matrix(1.26834,0,0,0.9,301.543,-2229.15)">
                <path d="M1229.2,3599.81L1381.91,3400.93" style="fill:none;stroke:rgb(160,159,164);stroke-width:8.33px;"/>
            </g>
            <g transform="matrix(1.26834,0,0,0.9,408.785,-2217.28)">
                <path d="M1608.11,3684.82L1291.45,3395.02" style="fill:none;stroke:rgb(160,159,164);stroke-width:8.33px;"/>
            </g>
            <g transform="matrix(1.26834,0,0,0.9,-25.9499,-1968.53)">
                <path d="M1229.2,3599.81L1227.81,3302.74" style="fill:none;stroke:rgb(160,159,164);stroke-width:8.33px;"/>
            </g>
            <g transform="matrix(1.26834,0,0,0.9,234.661,-1820.02)">
                <path d="M1023.72,3440.7L1533.74,3512.75" style="fill:none;stroke:rgb(160,159,164);stroke-width:8.33px;"/>
            </g>
            <g transform="matrix(1.2655,-0.0601444,0.0847594,0.897988,-435.963,-1584.61)">
                <path d="M1023.72,3440.7L1533.74,3512.75" style="fill:none;stroke:rgb(160,159,164);stroke-width:8.33px;"/>
            </g>
            <g transform="matrix(1.2655,-0.0601444,0.0847594,0.897988,-435.963,-1584.61)">
                <path d="M1023.72,3440.7L1342.22,3268.69" style="fill:none;stroke:rgb(160,159,164);stroke-width:8.33px;"/>
            </g>
            <g transform="matrix(1.2655,-0.0601444,0.0847594,0.897988,-435.963,-1584.61)">
                <path d="M1841.01,3380.73L1533.74,3512.75" style="fill:none;stroke:rgb(160,159,164);stroke-width:8.33px;"/>
            </g>
            <g transform="matrix(1.2655,-0.0601444,0.0847594,0.897988,-435.963,-1584.61)">
                <path d="M1841.01,3380.73L1957.63,3541.14" style="fill:none;stroke:rgb(160,159,164);stroke-width:8.33px;"/>
            </g>
            <g transform="matrix(1.2655,-0.0601444,0.0847594,0.897988,-435.963,-1584.61)">
                <path d="M1023.72,3440.7L1018.17,3100.42" style="fill:none;stroke:rgb(160,159,164);stroke-width:8.33px;"/>
            </g>
            <g transform="matrix(1.2655,-0.0601444,0.0847594,0.897988,-435.963,-1584.61)">
                <path d="M1154.24,2760.59L1018.17,3100.42" style="fill:none;stroke:rgb(160,159,164);stroke-width:8.33px;"/>
            </g>
            <g transform="matrix(1.2655,-0.0601444,0.0847594,0.897988,189.044,-2250.19)">
                <path d="M1023.72,3440.7L1563.56,3475.3" style="fill:none;stroke:rgb(160,159,164);stroke-width:8.33px;"/>
            </g>
            <g transform="matrix(1.2655,-0.0601444,0.0847594,0.897988,-519.009,-2242.53)">
                <path d="M1329.64,3347.39L1573.47,3468.99" style="fill:none;stroke:rgb(160,159,164);stroke-width:8.33px;"/>
            </g>
            <g transform="matrix(1.2655,-0.0601444,0.0847594,0.897988,-435.963,-1584.61)">
                <path d="M1023.72,3440.7L703.138,3482.73" style="fill:none;stroke:rgb(160,159,164);stroke-width:8.33px;"/>
            </g>
            <g transform="matrix(1.2655,-0.0601444,0.0847594,0.897988,-435.963,-1584.61)">
                <path d="M1739.99,3592.04L1533.74,3512.75" style="fill:none;stroke:rgb(160,159,164);stroke-width:8.33px;"/>
            </g>
            <g transform="matrix(1.2655,-0.0601444,0.0847594,0.897988,189.044,-2250.19)">
                <path d="M1023.72,3440.7L1236.46,3522.43" style="fill:none;stroke:rgb(160,159,164);stroke-width:8.33px;"/>
            </g>
            <g transform="matrix(1.2655,-0.0601444,0.0847594,0.897988,189.044,-2250.19)">
                <path d="M1023.72,3440.7L820.919,3678.12" style="fill:none;stroke:rgb(160,159,164);stroke-width:8.33px;"/>
            </g>
            <g transform="matrix(1.2655,-0.0601444,0.0847594,0.897988,189.044,-2250.19)">
                <path d="M1563.46,3476.85L1697.04,3657.21" style="fill:none;stroke:rgb(160,159,164);stroke-width:8.33px;"/>
            </g>
            <g transform="matrix(1.2655,-0.0601444,0.0847594,0.897988,189.044,-2250.19)">
                <path d="M1539.27,3834.07L1697.04,3657.21" style="fill:none;stroke:rgb(160,159,164);stroke-width:8.33px;"/>
            </g>
            <g transform="matrix(1.2655,-0.0601444,0.0847594,0.897988,189.044,-2250.19)">
                <path d="M1643.59,3885.06L1697.04,3657.21" style="fill:none;stroke:rgb(160,159,164);stroke-width:8.33px;"/>
            </g>
            <g transform="matrix(1.2655,-0.0601444,0.0847594,0.897988,189.044,-2250.19)">
                <path d="M1930.55,3395.04L1697.04,3657.21" style="fill:none;stroke:rgb(160,159,164);stroke-width:8.33px;"/>
            </g>
            <g transform="matrix(1.2655,-0.0601444,0.0847594,0.897988,189.044,-2250.19)">
                <path d="M1236.46,3522.43L1697.04,3657.21" style="fill:none;stroke:rgb(160,159,164);stroke-width:8.33px;"/>
            </g>
            <g transform="matrix(0.363846,0.713835,-0.473846,0.548123,1923.3,-993.21)">
                <path d="M1229.2,3599.81L1381.91,3400.93" style="fill:none;stroke:rgb(160,159,164);stroke-width:8.39px;"/>
            </g>
            <g transform="matrix(1.26834,0,0,0.9,539.379,-1812.35)">
                <path d="M1295.96,3498.24L1381.91,3400.93" style="fill:none;stroke:rgb(160,159,164);stroke-width:8.33px;"/>
            </g>
            <g transform="matrix(1.26834,0,0,0.9,304.696,-2229.79)">
                <path d="M371.774,3746.96L640.875,3747.56L968.354,3592.36L1227.47,3599.18L1301.91,3742.94L1565.21,3865.11L1690.9,3700.43L1807.38,3748.88L2037.64,3746.26" style="fill:none;stroke:rgb(247,4,132);stroke-width:20.83px;stroke-linecap:butt;"/>
            </g>
            <g transform="matrix(1.26834,0,0,0.9,304.696,-2229.79)">
                <path d="M371.774,3746.96L640.875,3747.56L968.354,3592.36L1227.47,3599.18L1301.91,3742.94L1565.21,3865.11L1690.9,3700.43L1807.38,3748.88L2037.64,3746.26" style="fill:none;stroke:rgb(160,159,164);stroke-width:8.33px;"/>
            </g>
            <g transform="matrix(0.648702,0,0,0.648702,89.1551,287.077)">
                <g transform="matrix(-1.26834,-1.10218e-16,1.55327e-16,-0.9,2635.05,5019.35)">
                    <path d="M329.914,4379.48L388.812,4422.27L366.315,4491.51L293.513,4491.51L271.016,4422.27L329.914,4379.48Z" style="fill:rgb(255,98,0);"/>
                </g>
                <g transform="matrix(-1.6218,0.664424,1.50838,1.85387,-3918.24,-7388.85)">
                    <ellipse cx="313.136" cy="4423.7" rx="12.382" ry="3.91" style="fill:white;"/>
                </g>
                <g transform="matrix(1.6218,0.664424,-1.50838,1.85387,8351.45,-7388.85)">
                    <ellipse cx="313.136" cy="4423.7" rx="12.382" ry="3.91" style="fill:white;"/>
                </g>
                <g transform="matrix(0.817342,0,0,0.432857,1947.93,-864.916)">
                    <path d="M405.39,4196.81C418.209,4213.27 425.848,4233.96 425.848,4256.42C425.848,4310.03 382.324,4353.55 328.715,4353.55C275.106,4353.55 231.583,4310.03 231.583,4256.42C231.583,4233.96 239.222,4213.27 252.041,4196.81C248.66,4205.78 246.81,4215.5 246.81,4225.65C246.81,4270.86 283.51,4307.56 328.715,4307.56C373.92,4307.56 410.621,4270.86 410.621,4225.65C410.621,4215.5 408.771,4205.78 405.39,4196.81Z" style="fill:rgb(255,98,0);"/>
                </g>
                <g transform="matrix(0.817342,0,0,0.432857,1947.93,-864.916)">
                    <path d="M409.864,4190.56C424.011,4208.72 432.314,4231.63 432.314,4256.42C432.314,4314.03 386.33,4362.22 328.715,4362.22C271.101,4362.22 225.117,4314.03 225.117,4256.42C225.117,4231.63 233.42,4208.72 247.567,4190.56C249.841,4187.64 253.355,4187.34 255.887,4189.85C258.419,4192.36 259.232,4196.95 257.813,4200.72C254.889,4208.48 253.275,4216.88 253.275,4225.65C253.275,4241.49 258.529,4256.07 267.234,4267.94C281.089,4286.84 303.51,4298.9 328.715,4298.9C353.92,4298.9 376.342,4286.84 390.197,4267.94C398.902,4256.07 404.155,4241.49 404.155,4225.65C404.155,4216.88 402.542,4208.48 399.618,4200.72C398.198,4196.95 399.012,4192.36 401.544,4189.85C404.075,4187.34 407.589,4187.64 409.864,4190.56ZM416.631,4234.82C412.132,4279.89 374.838,4316.22 328.715,4316.22C282.593,4316.22 245.299,4279.89 240.799,4234.82C239.007,4241.72 238.048,4248.95 238.048,4256.42C238.048,4275.62 244.393,4293.3 254.946,4307.7C271.573,4330.37 298.468,4344.89 328.715,4344.89C358.963,4344.89 385.858,4330.37 402.484,4307.7C413.037,4293.3 419.382,4275.62 419.382,4256.42C419.382,4248.95 418.424,4241.72 416.631,4234.82Z" style="fill:rgb(255,98,0);"/>
                </g>
            </g>
            <g transform="matrix(0.487263,0,0,0.487263,753.233,1248.71)">
                <g transform="matrix(-1.26834,-1.10218e-16,1.55327e-16,-0.9,2635.05,5019.35)">
                    <path d="M329.914,4379.48L388.812,4422.27L366.315,4491.51L293.513,4491.51L271.016,4422.27L329.914,4379.48Z" style="fill:rgb(255,98,0);"/>
                </g>
                <g transform="matrix(-1.6218,0.664424,1.50838,1.85387,-3918.24,-7388.85)">
                    <ellipse cx="313.136" cy="4423.7" rx="12.382" ry="3.91" style="fill:white;"/>
                </g>
                <g transform="matrix(1.6218,0.664424,-1.50838,1.85387,8351.45,-7388.85)">
                    <ellipse cx="313.136" cy="4423.7" rx="12.382" ry="3.91" style="fill:white;"/>
                </g>
                <g transform="matrix(0.817342,0,0,0.432857,1947.93,-864.916)">
                    <path d="M405.39,4196.81C418.209,4213.27 425.848,4233.96 425.848,4256.42C425.848,4310.03 382.324,4353.55 328.715,4353.55C275.106,4353.55 231.583,4310.03 231.583,4256.42C231.583,4233.96 239.222,4213.27 252.041,4196.81C248.66,4205.78 246.81,4215.5 246.81,4225.65C246.81,4270.86 283.51,4307.56 328.715,4307.56C373.92,4307.56 410.621,4270.86 410.621,4225.65C410.621,4215.5 408.771,4205.78 405.39,4196.81Z" style="fill:rgb(255,98,0);"/>
                </g>
                <g transform="matrix(0.817342,0,0,0.432857,1947.93,-864.916)">
                    <path d="M409.864,4190.56C424.011,4208.72 432.314,4231.63 432.314,4256.42C432.314,4314.03 386.33,4362.22 328.715,4362.22C271.101,4362.22 225.117,4314.03 225.117,4256.42C225.117,4231.63 233.42,4208.72 247.567,4190.56C249.841,4187.64 253.355,4187.34 255.887,4189.85C258.419,4192.36 259.232,4196.95 257.813,4200.72C254.889,4208.48 253.275,4216.88 253.275,4225.65C253.275,4241.49 258.529,4256.07 267.234,4267.94C281.089,4286.84 303.51,4298.9 328.715,4298.9C353.92,4298.9 376.342,4286.84 390.197,4267.94C398.902,4256.07 404.155,4241.49 404.155,4225.65C404.155,4216.88 402.542,4208.48 399.618,4200.72C398.198,4196.95 399.012,4192.36 401.544,4189.85C404.075,4187.34 407.589,4187.64 409.864,4190.56ZM416.631,4234.82C412.132,4279.89 374.838,4316.22 328.715,4316.22C282.593,4316.22 245.299,4279.89 240.799,4234.82C239.007,4241.72 238.048,4248.95 238.048,4256.42C238.048,4275.62 244.393,4293.3 254.946,4307.7C271.573,4330.37 298.468,4344.89 328.715,4344.89C358.963,4344.89 385.858,4330.37 402.484,4307.7C413.037,4293.3 419.382,4275.62 419.382,4256.42C419.382,4248.95 418.424,4241.72 416.631,4234.82Z" style="fill:rgb(255,98,0);"/>
                </g>
            </g>
            <g transform="matrix(1.2798,-0.00387084,-0.00545504,0.901843,313.668,-2232.82)">
                <path d="M663.819,3722.68L929.215,3596.31" style="fill:none;stroke:rgb(255,98,0);stroke-width:6.24px;stroke-linecap:butt;stroke-dasharray:18.73,12.48,0,0,0,0;"/>
            </g>
            <g transform="matrix(0.853303,0.698498,-0.985194,0.575653,4256.55,-1465.85)">
                <path d="M663.819,3722.68L929.215,3596.31" style="fill:none;stroke:rgb(121,4,247);stroke-width:6.23px;stroke-linecap:butt;"/>
            </g>
            <g transform="matrix(1.3027,-0.00644972,-0.0234167,0.905438,795.488,-2112.74)">
                <path d="M663.819,3722.68L929.215,3596.31" style="fill:none;stroke:rgb(121,4,247);stroke-width:6.23px;stroke-linecap:butt;"/>
            </g>
            <g transform="matrix(0.695548,0.970726,-1.27549,0.275792,6375.61,-819.611)">
                <path d="M663.819,3722.68L929.215,3596.31" style="fill:none;stroke:rgb(121,4,247);stroke-width:6.06px;stroke-linecap:butt;"/>
            </g>
            <g transform="matrix(-0.864375,0.166434,-0.705663,-0.68352,5238.52,3299.11)">
                <path d="M663.819,3722.68L929.215,3596.31" style="fill:none;stroke:rgb(121,4,247);stroke-width:6.48px;stroke-linecap:butt;"/>
            </g>
            <g transform="matrix(0.58557,0.617006,-0.865855,0.61182,4833.86,-1546.61)">
                <path d="M663.819,3722.68L929.215,3596.31" style="fill:none;stroke:rgb(121,4,247);stroke-width:6.39px;stroke-linecap:butt;"/>
            </g>
            <g transform="matrix(0.769336,-0.0856977,0.760905,0.635663,-1038.44,-1093.2)">
                <path d="M663.819,3722.68L929.215,3596.31" style="fill:none;stroke:rgb(121,4,247);stroke-width:6.54px;stroke-linecap:butt;"/>
            </g>
            <g transform="matrix(0.770251,0.402152,-0.405532,0.804951,2572.19,-2271.2)">
                <path d="M663.819,3722.68L929.215,3596.31" style="fill:none;stroke:rgb(255,98,0);stroke-width:6.44px;stroke-linecap:butt;stroke-dasharray:19.33,12.89,0,0,0,0;"/>
            </g>
            <g transform="matrix(-0.301493,0.428623,-1.10426,0.253776,6205.53,-199.873)">
                <path d="M663.819,3722.68L929.215,3596.31" style="fill:none;stroke:rgb(121,4,247);stroke-width:6.58px;stroke-linecap:butt;"/>
            </g>
            <g transform="matrix(0.0237835,0.427914,-0.562982,0.712987,4572.35,-1838)">
                <path d="M663.819,3722.68L929.215,3596.31" style="fill:none;stroke:rgb(121,4,247);stroke-width:6.61px;stroke-linecap:butt;"/>
            </g>
            <g transform="matrix(1.29701,-0.00968857,-0.0136538,0.904613,345.36,-2217.64)">
                <path d="M663.819,3722.68L929.215,3596.31" style="fill:none;stroke:rgb(255,98,0);stroke-width:6.23px;stroke-linecap:butt;stroke-dasharray:18.69,12.46,0,0,0,0;"/>
            </g>
            <g transform="matrix(0.853854,0.698674,-0.985457,0.575569,4244.55,-1444.05)">
                <path d="M663.819,3722.68L929.215,3596.31" style="fill:none;stroke:rgb(121,4,247);stroke-width:6.23px;stroke-linecap:butt;"/>
            </g>
            <g transform="matrix(1.30325,-0.00663199,-0.0236773,0.905525,811.046,-2092.1)">
                <path d="M663.819,3722.68L929.215,3596.31" style="fill:none;stroke:rgb(121,4,247);stroke-width:6.23px;stroke-linecap:butt;"/>
            </g>
            <g transform="matrix(0.697235,0.971813,-1.27629,0.275274,6355.72,-800.858)">
                <path d="M663.819,3722.68L929.215,3596.31" style="fill:none;stroke:rgb(121,4,247);stroke-width:6.06px;stroke-linecap:butt;"/>
            </g>
            <g transform="matrix(-0.870204,0.171861,-0.702887,-0.686104,5206.99,3289.9)">
                <path d="M663.819,3722.68L929.215,3596.31" style="fill:none;stroke:rgb(121,4,247);stroke-width:6.47px;stroke-linecap:butt;"/>
            </g>
            <g transform="matrix(0.598576,0.621251,-0.872048,0.609799,4835.48,-1520.35)">
                <path d="M663.819,3722.68L929.215,3596.31" style="fill:none;stroke:rgb(121,4,247);stroke-width:6.38px;stroke-linecap:butt;"/>
            </g>
            <g transform="matrix(0.755323,-0.0723279,0.767577,0.629297,-1026.91,-1065.03)">
                <path d="M663.819,3722.68L929.215,3596.31" style="fill:none;stroke:rgb(121,4,247);stroke-width:6.54px;stroke-linecap:butt;"/>
            </g>
            <g transform="matrix(0.776401,0.402273,-0.40846,0.804894,2577,-2247.72)">
                <path d="M663.819,3722.68L929.215,3596.31" style="fill:none;stroke:rgb(255,98,0);stroke-width:6.44px;stroke-linecap:butt;stroke-dasharray:19.32,12.88,0,0,0,0;"/>
            </g>
            <g transform="matrix(-0.30454,0.424443,-1.10281,0.255766,6173.38,-193.105)">
                <path d="M663.819,3722.68L929.215,3596.31" style="fill:none;stroke:rgb(121,4,247);stroke-width:6.58px;stroke-linecap:butt;"/>
            </g>
            <g transform="matrix(0.0180826,0.426187,-0.560268,0.713809,4554.07,-1818.12)">
                <path d="M663.819,3722.68L929.215,3596.31" style="fill:none;stroke:rgb(121,4,247);stroke-width:6.61px;stroke-linecap:butt;"/>
            </g>
            <g transform="matrix(2.52944,-0.782721,0.506997,0.824968,-2429.85,-1428.73)">
                <rect x="664.068" y="3717.34" width="5.879" height="37.657" style="fill:rgb(121,4,247);"/>
            </g>
            <g transform="matrix(2.47521,0.865623,-0.560696,0.807282,1590.85,-2443.11)">
                <rect x="664.068" y="3717.34" width="5.879" height="37.657" style="fill:rgb(121,4,247);"/>
            </g>
            <g transform="matrix(2.53553,-0.772737,0.50053,0.826954,-1983.4,-1309.79)">
                <rect x="664.068" y="3717.34" width="5.879" height="37.657" style="fill:rgb(121,4,247);"/>
            </g>
            <g transform="matrix(1.98039,1.3636,-0.883255,0.645899,4052.91,-2466.31)">
                <rect x="664.068" y="3717.34" width="5.879" height="37.657" style="fill:rgb(121,4,247);"/>
            </g>
            <g transform="matrix(-1.74465,1.51709,-0.982678,-0.569013,6860.09,1972.25)">
                <rect x="664.068" y="3717.34" width="5.879" height="37.657" style="fill:rgb(121,4,247);"/>
            </g>
            <g transform="matrix(2.46739,0.876793,-0.567931,0.804731,2466.86,-2441.29)">
                <rect x="664.068" y="3717.34" width="5.879" height="37.657" style="fill:rgb(121,4,247);"/>
            </g>
            <g transform="matrix(-1.74465,1.51709,-0.982678,-0.569013,6722.35,2099.06)">
                <rect x="664.068" y="3717.34" width="5.879" height="37.657" style="fill:rgb(121,4,247);"/>
            </g>
            <g transform="matrix(2.46739,0.876793,-0.567931,0.804731,2731.64,-2354.44)">
                <rect x="664.068" y="3717.34" width="5.879" height="37.657" style="fill:rgb(121,4,247);"/>
            </g>
            <g transform="matrix(1.71925,-1.53163,0.99209,0.560729,-2430.91,50.4776)">
                <rect x="664.068" y="3717.34" width="5.879" height="37.657" style="fill:rgb(121,4,247);"/>
            </g>
            <g transform="matrix(2.7544,0.118914,-0.0770251,0.898339,280.07,-2426.18)">
                <rect x="664.068" y="3717.34" width="5.879" height="37.657" style="fill:rgb(121,4,247);"/>
            </g>
            <g transform="matrix(1.18555,1.76818,-1.14532,0.386664,5428.23,-1507.49)">
                <rect x="664.068" y="3717.34" width="5.879" height="37.657" style="fill:rgb(121,4,247);"/>
            </g>
            <g transform="matrix(1.71925,-1.53163,0.99209,0.560729,-2537.07,150.818)">
                <rect x="664.068" y="3717.34" width="5.879" height="37.657" style="fill:rgb(121,4,247);"/>
            </g>
            <g transform="matrix(2.7544,0.118914,-0.0770251,0.898339,18.7741,-2432.26)">
                <rect x="664.068" y="3717.34" width="5.879" height="37.657" style="fill:rgb(255,98,0);"/>
            </g>
            <g transform="matrix(1.18555,1.76818,-1.14532,0.386664,5367.88,-1590.83)">
                <rect x="664.068" y="3717.34" width="5.879" height="37.657" style="fill:rgb(121,4,247);"/>
            </g>
            <g transform="matrix(2.50049,0.828228,-0.536474,0.815528,2820.69,-2489.37)">
                <rect x="664.068" y="3717.34" width="5.879" height="37.657" style="fill:rgb(121,4,247);"/>
            </g>
            <g transform="matrix(2.50049,0.828228,-0.536474,0.815528,2897.32,-2466.04)">
                <rect x="664.068" y="3717.34" width="5.879" height="37.657" style="fill:rgb(121,4,247);"/>
            </g>
            <g transform="matrix(2.52944,-0.782721,0.506997,0.824968,-2088.51,-1542.91)">
                <rect x="664.068" y="3717.34" width="5.879" height="37.657" style="fill:rgb(255,98,0);"/>
            </g>
            <g transform="matrix(2.47521,0.865623,-0.560696,0.807282,1947.5,-2328.01)">
                <rect x="664.068" y="3717.34" width="5.879" height="37.657" style="fill:rgb(121,4,247);"/>
            </g>
            <g transform="matrix(2.53553,-0.772737,0.50053,0.826954,-1637.23,-1423.95)">
                <rect x="664.068" y="3717.34" width="5.879" height="37.657" style="fill:rgb(121,4,247);"/>
            </g>
            <g transform="matrix(1.98039,1.3636,-0.883255,0.645899,4398.19,-2242.08)">
                <rect x="664.068" y="3717.34" width="5.879" height="37.657" style="fill:rgb(121,4,247);"/>
            </g>
            <g transform="matrix(4.30903,4.33411e-17,3.684e-16,1.40538,-596.984,-3508.03)">
                <rect x="664.068" y="3717.34" width="5.879" height="37.657" style="fill:rgb(121,4,247);"/>
            </g>
            <g transform="matrix(1,0,0,1,48.2114,-352.934)">
                <g transform="matrix(0.458325,0.386911,-0.21823,0.812589,2854.74,-1083.23)">
                    <path d="M663.819,3722.68L929.215,3596.31" style="fill:none;stroke:rgb(121,4,247);stroke-width:4.38px;stroke-linecap:butt;"/>
                </g>
                <g transform="matrix(0.458325,0.386911,-0.21823,0.812589,2854.74,-1059.85)">
                    <path d="M663.819,3722.68L929.215,3596.31" style="fill:none;stroke:rgb(121,4,247);stroke-width:4.38px;stroke-linecap:butt;"/>
                </g>
            </g>
            <g transform="matrix(1,0,0,1,101.515,-349.678)">
                <g transform="matrix(0.458325,0.386911,-0.21823,0.812589,1889.94,-1079.11)">
                    <path d="M663.819,3722.68L929.215,3596.31" style="fill:none;stroke:rgb(247,4,132);stroke-width:4.38px;stroke-linecap:butt;"/>
                </g>
                <g transform="matrix(0.458325,0.386911,-0.21823,0.812589,1889.94,-1070.48)">
                    <path d="M663.819,3722.68L929.215,3596.31" style="fill:none;stroke:rgb(247,4,132);stroke-width:4.38px;stroke-linecap:butt;"/>
                </g>
            </g>
            <g transform="matrix(1,0,0,1,-50.8288,-369.976)">
                <g transform="matrix(0.105105,0.386911,-0.0500455,0.812589,2456.63,-1180.87)">
                    <path d="M663.819,3722.68L929.215,3596.31" style="fill:none;stroke:rgb(121,4,247);stroke-width:4.42px;stroke-linecap:butt;"/>
                </g>
                <g transform="matrix(0.103354,0.386911,-0.0492117,0.812589,2455.26,-1157.49)">
                    <path d="M663.819,3722.68L929.215,3596.31" style="fill:none;stroke:rgb(121,4,247);stroke-width:4.42px;stroke-linecap:butt;"/>
                </g>
            </g>
        </g>
    </g>
</svg>
