<?xml version="1.0" encoding="UTF-8" standalone="no"?>
<!DOCTYPE svg PUBLIC "-//W3C//DTD SVG 1.1//EN" "http://www.w3.org/Graphics/SVG/1.1/DTD/svg11.dtd">
<svg width="100%" height="100%" viewBox="0 0 2363 2363" version="1.1" xmlns="http://www.w3.org/2000/svg" xmlns:xlink="http://www.w3.org/1999/xlink" xml:space="preserve" xmlns:serif="http://www.serif.com/" style="fill-rule:evenodd;clip-rule:evenodd;stroke-linejoin:round;">
    <g id="multidisciplinary" transform="matrix(0.788433,0,0,1.11111,-263.835,-196.85)">
        <rect x="334.633" y="177.165" width="2996.08" height="2125.98" style="fill:none;"/>
        <g transform="matrix(3.05426,-4.52894e-32,-1.28083e-32,0.273646,-1616.99,49.0518)">
            <path d="M1608.99,568.833C1608.99,562.401 1608.34,557.179 1607.52,557.179L649.136,557.179C648.324,557.179 647.664,562.401 647.664,568.833L647.664,933.981C647.664,940.413 648.324,945.635 649.136,945.635L1607.52,945.635C1608.34,945.635 1608.99,940.413 1608.99,933.981L1608.99,568.833Z" style="fill:rgb(64,63,73);"/>
        </g>
        <g transform="matrix(1.26587,-1.83365e-32,-3.10812e-32,0.89825,-1002.14,-1052.79)">
            <g transform="matrix(50.5149,0,0,50.5149,3167.48,1473.55)">
            </g>
            <text x="1305.9px" y="1473.55px" style="font-family:'Nunito-Medium', 'Nunito';font-weight:500;font-size:50.515px;fill:white;">Buil<tspan x="1395.67px " y="1473.55px ">d</tspan>ing R<tspan x="1542.57px " y="1473.55px ">e</tspan>al<tspan x="1611.32px 1630.46px 1683.2px " y="1473.55px 1473.55px 1473.55px ">-Wo</tspan>rl<tspan x="1744.88px " y="1473.55px ">d</tspan> Cr<tspan x="1841.77px 1867.88px 1897.28px 1915.11px " y="1473.55px 1473.55px 1473.55px 1473.55px ">ypto</tspan>gr<tspan x="1991.39px " y="1473.55px ">a</tspan>ph<tspan x="2076.61px " y="1473.55px ">y</tspan> Solut<tspan x="2237.65px " y="1473.55px ">i</tspan>ons – Cr<tspan x="2436.88px 2463px 2492.4px 2510.23px " y="1473.55px 1473.55px 1473.55px 1473.55px ">ypto</tspan>gr<tspan x="2586.51px " y="1473.55px ">a</tspan>ph<tspan x="2671.73px " y="1473.55px ">y</tspan> is Mul<tspan x="2847.16px 2865.65px " y="1473.55px 1473.55px ">ti</tspan>-Disciplinar<tspan x="3141.36px " y="1473.55px ">y</tspan></text>
        </g>
        <g transform="matrix(1.22512,-0.232937,0.32827,0.869333,28.3126,385.491)">
            <path d="M1115.91,580.672L1115.91,1338.82L579.816,802.728C721.996,660.548 914.833,580.672 1115.91,580.672Z" style="fill:rgb(253,180,218);stroke:white;stroke-width:16.67px;"/>
        </g>
        <g transform="matrix(0.634169,0.779423,-1.09841,0.45,2597.83,-182.797)">
            <path d="M1115.91,580.672L1115.91,1338.82L459.332,959.745C594.762,725.174 845.047,580.672 1115.91,580.672Z" style="fill:rgb(255,211,152);stroke:white;stroke-width:16.67px;"/>
        </g>
        <g transform="matrix(-0.634169,0.779423,-1.09841,-0.45,4013.18,1022.14)">
            <path d="M1115.91,580.672L1115.91,1338.82L459.332,959.745C594.762,725.174 845.047,580.672 1115.91,580.672Z" style="fill:rgb(212,226,247);stroke:white;stroke-width:16.67px;"/>
        </g>
        <g transform="matrix(-1.26834,5.55112e-17,0,-0.9,3250.27,2494.37)">
            <path d="M1115.91,580.672L1115.91,1338.82L459.332,959.745C594.762,725.174 845.047,580.672 1115.91,580.672Z" style="fill:rgb(212,226,247);stroke:white;stroke-width:16.67px;"/>
        </g>
        <g transform="matrix(-0.634169,-0.779423,1.09841,-0.45,1072.02,2761.66)">
            <path d="M1115.91,580.672L1115.91,1338.82L459.332,959.745C594.762,725.174 845.047,580.672 1115.91,580.672Z" style="fill:rgb(255,229,193);stroke:white;stroke-width:16.67px;"/>
        </g>
        <g transform="matrix(0.634169,-0.779423,1.09841,0.45,-343.322,1556.73)">
            <path d="M1115.91,580.672L1115.91,1338.82L459.332,959.745C594.762,725.174 845.047,580.672 1115.91,580.672Z" style="fill:rgb(253,180,218);stroke:white;stroke-width:16.67px;"/>
        </g>
        <g transform="matrix(-0.562011,-0.230246,0.324477,-0.398797,2032.04,2080.35)">
            <path d="M1115.91,580.672L1115.91,1338.82L459.333,1717.89C392.791,1602.64 357.76,1471.9 357.76,1338.82C357.76,920.105 697.194,580.672 1115.91,580.672Z" style="fill:rgb(179,178,182);stroke:white;stroke-width:32.57px;"/>
        </g>
        <g transform="matrix(0.562011,-0.230246,0.324477,0.398797,777.732,1012.52)">
            <path d="M1115.91,580.672L1115.91,1338.82L459.333,1717.89C392.791,1602.64 357.76,1471.9 357.76,1338.82C357.76,920.105 697.194,580.672 1115.91,580.672Z" style="fill:rgb(179,178,182);stroke:white;stroke-width:32.57px;"/>
        </g>
        <g transform="matrix(1.11022e-16,0.460492,-0.648955,8.32667e-17,2708.13,775.638)">
            <path d="M1115.91,580.672L1115.91,1338.82L459.333,1717.89C392.791,1602.64 357.76,1471.9 357.76,1338.82C357.76,920.105 697.194,580.672 1115.91,580.672Z" style="fill:rgb(179,178,182);stroke:white;stroke-width:32.57px;"/>
        </g>
        <g transform="matrix(1.26834,1.17708e-31,-6.55046e-33,0.9,619.795,-551.111)">
            <text x="1198.17px" y="1482.69px" style="font-family:'Nunito-Medium', 'Nunito';font-weight:500;font-size:33.333px;">ident<tspan x="1274.71px 1282.61px 1293.67px " y="1482.69px 1482.69px 1482.69px ">ify</tspan></text>
            <text x="1213.51px" y="1516.03px" style="font-family:'Nunito-Medium', 'Nunito';font-weight:500;font-size:33.333px;">goal<tspan x="1279.47px " y="1516.03px ">s</tspan></text>
            <g transform="matrix(33.3333,0,0,33.3333,1330.56,1549.36)">
            </g>
            <text x="1178.52px" y="1549.36px" style="font-family:'Nunito-Medium', 'Nunito';font-weight:500;font-size:33.333px;">inf<tspan x="1216.36px " y="1549.36px ">o</tspan>rmall<tspan x="1313.32px " y="1549.36px ">y</tspan></text>
        </g>
        <g transform="matrix(1.09841,0.45,-0.634169,0.779423,1850.61,-1243.91)">
            <g transform="matrix(50,0,0,50,1565.48,1521.98)">
            </g>
            <text x="1241.73px" y="1521.98px" style="font-family:'Nunito-Bold', 'Nunito';font-weight:700;font-size:50px;fill:rgb(255,98,0);">PHIL<tspan x="1353.28px " y="1521.98px ">O</tspan>SOPHY</text>
        </g>
        <g transform="matrix(-1.09841,-0.45,0.634169,-0.779423,1840.1,3735.1)">
            <g transform="matrix(50,0,0,50,1572.53,1521.98)">
            </g>
            <text x="1234.68px" y="1521.98px" style="font-family:'Nunito-Bold', 'Nunito';font-weight:700;font-size:50px;fill:rgb(255,166,48);">ENGINEERING</text>
        </g>
        <g transform="matrix(1.09841,0.45,-0.634169,0.779423,1786.11,-1159.36)">
            <g transform="matrix(50,0,0,50,1572.53,1521.98)">
            </g>
            <text x="1234.68px" y="1521.98px" style="font-family:'Nunito-Bold', 'Nunito';font-weight:700;font-size:50px;fill:rgb(255,166,48);">ENGINEERING</text>
        </g>
        <g transform="matrix(1.39873e-16,-0.9,1.26834,-9.00392e-17,-1140.31,2555.62)">
            <g transform="matrix(50,0,0,50,1623.38,1521.98)">
            </g>
            <text x="1183.83px" y="1521.98px" style="font-family:'Nunito-Bold', 'Nunito';font-weight:700;font-size:50px;fill:rgb(247,4,132);">SOCIAL SCIENCE<tspan x="1591.83px " y="1521.98px ">S</tspan></text>
        </g>
        <g transform="matrix(1.09841,-0.45,0.634169,0.779423,-1277.77,19.3336)">
            <text x="1270.15px" y="1517.89px" style="font-family:'Nunito-Bold', 'Nunito';font-weight:700;font-size:50px;fill:rgb(247,4,132);">EMPIRIC<tspan x="1471.75px " y="1517.89px ">A</tspan>L</text>
            <text x="1311.5px" y="1576.22px" style="font-family:'Nunito-Bold', 'Nunito';font-weight:700;font-size:50px;fill:rgb(247,4,132);">SOCIAL</text>
            <g transform="matrix(50,0,0,50,1537.75,1634.56)">
            </g>
            <text x="1269.45px" y="1634.56px" style="font-family:'Nunito-Bold', 'Nunito';font-weight:700;font-size:50px;fill:rgb(247,4,132);">RE<tspan x="1333.1px 1364.65px 1393.85px 1431.05px 1465.1px " y="1634.56px 1634.56px 1634.56px 1634.56px 1634.56px ">SEARC</tspan>H</text>
        </g>
        <g transform="matrix(-1.09841,0.45,-0.634169,-0.779423,4889.95,2471.86)">
            <g transform="matrix(50,0,0,50,1585.05,1521.98)">
            </g>
            <text x="1222.15px" y="1521.98px" style="font-family:'Nunito-Bold', 'Nunito';font-weight:700;font-size:50px;fill:rgb(114,161,229);">MA<tspan x="1298.85px " y="1521.98px ">T</tspan>HEMA<tspan x="1475.1px " y="1521.98px ">T</tspan>IC<tspan x="1553.5px " y="1521.98px ">S</tspan></text>
        </g>
        <g transform="matrix(7.76634e-17,0.9,-1.26834,5.51091e-17,4803.43,16.6429)">
            <g transform="matrix(50,0,0,50,1585.05,1521.98)">
            </g>
            <text x="1222.15px" y="1521.98px" style="font-family:'Nunito-Bold', 'Nunito';font-weight:700;font-size:50px;fill:rgb(114,161,229);">MA<tspan x="1298.85px " y="1521.98px ">T</tspan>HEMA<tspan x="1475.1px " y="1521.98px ">T</tspan>IC<tspan x="1553.5px " y="1521.98px ">S</tspan></text>
        </g>
        <g transform="matrix(1.26834,7.67209e-32,-1.00499e-32,0.9,325.531,-228.479)">
            <g transform="matrix(33.3333,0,0,33.3333,1389.1,1516.02)">
            </g>
            <text x="1208.63px" y="1516.03px" style="font-family:'Nunito-Medium', 'Nunito';font-weight:500;font-size:33.333px;">disseminat<tspan x="1371.3px " y="1516.03px ">e</tspan></text>
        </g>
        <g transform="matrix(1.26834,7.67209e-32,-1.00499e-32,0.9,298.729,110.35)">
            <g transform="matrix(33.3333,0,0,33.3333,1344.5,1516.02)">
            </g>
            <text x="1253.23px" y="1516.03px" style="font-family:'Nunito-Medium', 'Nunito';font-weight:500;font-size:33.333px;">at<tspan x="1282.36px " y="1516.03px ">t</tspan>ack</text>
        </g>
        <g transform="matrix(1.26834,7.67209e-32,-1.00499e-32,0.9,-96.907,-75.3392)">
            <g transform="matrix(33.3333,0,0,33.3333,1350.08,1516.02)">
            </g>
            <text x="1247.65px" y="1516.03px" style="font-family:'Nunito-Medium', 'Nunito';font-weight:500;font-size:33.333px;">depl<tspan x="1314.45px 1332.85px " y="1516.03px 1516.03px ">oy</tspan></text>
        </g>
        <g transform="matrix(1.26834,7.67209e-32,-1.00499e-32,0.9,904.821,-159.962)">
            <text x="1229.31px" y="1499.36px" style="font-family:'Nunito-Medium', 'Nunito';font-weight:500;font-size:33.333px;">f<tspan x="1240.18px " y="1499.36px ">o</tspan>rmaliz<tspan x="1350.61px " y="1499.36px ">e</tspan></text>
            <g transform="matrix(33.3333,0,0,33.3333,1403.1,1532.69)">
            </g>
            <text x="1194.63px" y="1532.69px" style="font-family:'Nunito-Medium', 'Nunito';font-weight:500;font-size:33.333px;">securit<tspan x="1295.1px " y="1532.69px ">y</tspan> goal<tspan x="1387px " y="1532.69px ">s</tspan></text>
        </g>
        <g transform="matrix(1.26834,5.94726e-32,-1.29646e-32,0.9,-328.934,255.097)">
            <text x="1266.29px" y="1487.73px" style="font-family:'Nunito-Medium', 'Nunito';font-weight:500;font-size:33.333px;">cr<tspan x="1293.72px " y="1487.73px ">e</tspan>at<tspan x="1341.05px " y="1487.73px ">e</tspan></text>
            <g transform="matrix(33.3333,0,0,33.3333,1431.04,1521.07)">
            </g>
            <text x="1194.1px" y="1521.07px" style="font-family:'Nunito-Medium', 'Nunito';font-weight:500;font-size:33.333px;">impl<tspan x="1260.14px " y="1521.07px ">e</tspan>mentat<tspan x="1385.4px " y="1521.07px ">i</tspan>on</text>
        </g>
        <g transform="matrix(1.26834,9.16598e-32,-8.41199e-33,0.9,-508.163,-174.175)">
            <text x="1230.2px" y="1473.13px" style="font-family:'Nunito-Medium', 'Nunito';font-weight:500;font-size:33.333px;">anal<tspan x="1294.43px 1311.43px 1326.63px " y="1473.13px 1473.13px 1473.13px ">yze</tspan></text>
            <text x="1223.25px" y="1506.46px" style="font-family:'Nunito-Medium', 'Nunito';font-weight:500;font-size:33.333px;">pr<tspan x="1254.82px " y="1506.46px ">a</tspan>ct<tspan x="1300.32px 1308.22px 1323.59px " y="1506.46px 1506.46px 1506.46px ">ica</tspan>l</text>
            <text x="1228.47px" y="1539.79px" style="font-family:'Nunito-Medium', 'Nunito';font-weight:500;font-size:33.333px;">securit<tspan x="1328.93px " y="1539.79px ">y</tspan></text>
            <g transform="matrix(33.3333,0,0,33.3333,1353.92,1573.13)">
            </g>
            <text x="1220.72px" y="1573.13px" style="font-family:'Nunito-Medium', 'Nunito';font-weight:500;font-size:33.333px;">c<tspan x="1235.88px " y="1573.13px ">o</tspan>nc<tspan x="1288.79px " y="1573.13px ">e</tspan>rns</text>
        </g>
        <g transform="matrix(1.26834,7.34106e-32,-1.05031e-32,0.9,-527.079,47.8648)">
            <text x="1237.66px" y="1476.62px" style="font-family:'Nunito-Medium', 'Nunito';font-weight:500;font-size:33.333px;">anal<tspan x="1301.89px 1318.89px 1334.09px " y="1476.62px 1476.62px 1476.62px ">yze</tspan></text>
            <text x="1211.76px" y="1509.95px" style="font-family:'Nunito-Medium', 'Nunito';font-weight:500;font-size:33.333px;">usabilit<tspan x="1322.03px " y="1509.95px ">y</tspan> o<tspan x="1366.46px " y="1509.95px ">f</tspan></text>
            <g transform="matrix(33.3333,0,0,33.3333,1387.34,1543.28)">
            </g>
            <text x="1202.21px" y="1543.28px" style="font-family:'Nunito-Medium', 'Nunito';font-weight:500;font-size:33.333px;">c<tspan x="1217.38px " y="1543.28px ">o</tspan>ns<tspan x="1271.04px " y="1543.28px ">t</tspan>ruct<tspan x="1341.71px " y="1543.28px ">i</tspan>on</text>
        </g>
        <g transform="matrix(1.26834,1.17595e-31,-6.55675e-33,0.9,-250.634,-451.25)">
            <text x="1201.35px" y="1486.5px" style="font-family:'Nunito-Medium', 'Nunito';font-weight:500;font-size:33.333px;">anal<tspan x="1265.58px 1282.58px 1297.78px " y="1486.5px 1486.5px 1486.5px ">yze</tspan></text>
            <text x="1215.48px" y="1519.83px" style="font-family:'Nunito-Medium', 'Nunito';font-weight:500;font-size:33.333px;">social</text>
            <g transform="matrix(33.3333,0,0,33.3333,1309.16,1553.17)">
            </g>
            <text x="1207.77px" y="1553.17px" style="font-family:'Nunito-Medium', 'Nunito';font-weight:500;font-size:33.333px;">impact</text>
        </g>
        <g transform="matrix(1.26834,2.55491e-32,-3.01788e-32,0.9,-277.027,394.988)">
            <g transform="matrix(33.3333,0,0,33.3333,1379.92,1464.86)">
            </g>
            <text x="1252.15px" y="1464.86px" style="font-family:'Nunito-Medium', 'Nunito';font-weight:500;font-size:33.333px;">op<tspan x="1290.22px 1302.42px " y="1464.86px 1464.86px ">ti</tspan>miz<tspan x="1362.12px " y="1464.86px ">e</tspan></text>
        </g>
        <g transform="matrix(1.26834,7.36993e-32,-1.0462e-32,0.9,-37.7685,450.943)">
            <g transform="matrix(33.3333,0,0,33.3333,1190.12,1481.07)">
            </g>
            <g transform="matrix(33.3333,0,0,33.3333,1201.32,1481.07)">
            </g>
            <text x="1190.12px" y="1481.07px" style="font-family:'Nunito-Medium', 'Nunito';font-weight:500;font-size:33.333px;">ﬁnd and at<tspan x="1350.69px " y="1481.07px ">t</tspan>ack</text>
            <text x="1183px" y="1514.4px" style="font-family:'Nunito-Medium', 'Nunito';font-weight:500;font-size:33.333px;">impl<tspan x="1249.04px " y="1514.4px ">e</tspan>mentat<tspan x="1374.3px " y="1514.4px ">i</tspan>on</text>
            <g transform="matrix(33.3333,0,0,33.3333,1260.04,1547.74)">
            </g>
            <g transform="matrix(33.3333,0,0,33.3333,1271.37,1547.74)">
            </g>
            <g transform="matrix(33.3333,0,0,33.3333,1342.9,1547.74)">
            </g>
            <text x="1260.04px" y="1547.74px" style="font-family:'Nunito-Medium', 'Nunito';font-weight:500;font-size:33.333px;">ﬂa<tspan x="1299px 1326.8px " y="1547.74px 1547.74px ">ws</tspan></text>
        </g>
        <g transform="matrix(1.26834,1.17809e-31,-6.54485e-33,0.9,476.611,422.966)">
            <text x="1208.19px" y="1482.69px" style="font-family:'Nunito-Medium', 'Nunito';font-weight:500;font-size:33.333px;">cr<tspan x="1235.62px " y="1482.69px ">e</tspan>at<tspan x="1282.95px " y="1482.69px ">e</tspan></text>
            <text x="1195.62px" y="1516.03px" style="font-family:'Nunito-Medium', 'Nunito';font-weight:500;font-size:33.333px;">securit<tspan x="1296.09px " y="1516.03px ">y</tspan></text>
            <g transform="matrix(33.3333,0,0,33.3333,1294.47,1549.36)">
            </g>
            <text x="1214.47px" y="1549.36px" style="font-family:'Nunito-Medium', 'Nunito';font-weight:500;font-size:33.333px;">pr<tspan x="1245.97px 1264.64px 1283.14px " y="1549.36px 1549.36px 1549.36px ">oof</tspan></text>
        </g>
        <g transform="matrix(1.26834,1.21015e-31,-6.37147e-33,0.9,686.884,276.789)">
            <text x="1224.59px" y="1515.65px" style="font-family:'Nunito-Medium', 'Nunito';font-weight:500;font-size:33.333px;">de<tspan x="1261.73px 1278.73px 1296.53px 1306.39px " y="1515.65px 1515.65px 1515.65px 1515.65px ">velo</tspan>p</text>
            <text x="1181.98px" y="1548.98px" style="font-family:'Nunito-Medium', 'Nunito';font-weight:500;font-size:33.333px;">mat<tspan x="1240.64px " y="1548.98px ">h</tspan>emat<tspan x="1336.18px 1344.08px 1359.44px " y="1548.98px 1548.98px 1548.98px ">ica</tspan>l</text>
            <g transform="matrix(33.3333,0,0,33.3333,1377.18,1582.32)">
            </g>
            <text x="1192.04px" y="1582.32px" style="font-family:'Nunito-Medium', 'Nunito';font-weight:500;font-size:33.333px;">c<tspan x="1207.21px " y="1582.32px ">o</tspan>ns<tspan x="1260.88px " y="1582.32px ">t</tspan>ruct<tspan x="1331.54px " y="1582.32px ">i</tspan>on</text>
        </g>
        <g transform="matrix(1.26834,8.24923e-32,-9.34683e-33,0.9,715.653,-417.722)">
            <text x="1183.79px" y="1499.36px" style="font-family:'Nunito-Medium', 'Nunito';font-weight:500;font-size:33.333px;">oper<tspan x="1251.82px 1269.59px 1281.79px " y="1499.36px 1499.36px 1499.36px ">ati</tspan>onaliz<tspan x="1378.32px " y="1499.36px ">e</tspan></text>
            <g transform="matrix(33.3333,0,0,33.3333,1339.69,1532.69)">
            </g>
            <text x="1248.92px" y="1532.69px" style="font-family:'Nunito-Medium', 'Nunito';font-weight:500;font-size:33.333px;">goal<tspan x="1314.89px " y="1532.69px ">s</tspan></text>
        </g>
        <g transform="matrix(1.26834,1.43833e-31,-5.36068e-33,0.9,904.821,-39.5601)">
            <text x="1218.03px" y="1523.25px" style="font-family:'Nunito-Medium', 'Nunito';font-weight:500;font-size:33.333px;">c<tspan x="1233.19px " y="1523.25px ">o</tspan>mpar<tspan x="1329.83px " y="1523.25px ">e</tspan>,</text>
            <text x="1221.34px" y="1556.58px" style="font-family:'Nunito-Medium', 'Nunito';font-weight:500;font-size:33.333px;">c<tspan x="1236.51px " y="1556.58px ">o</tspan>ntr<tspan x="1298.18px 1315.94px 1331.88px 1344.31px " y="1556.58px 1556.58px 1556.58px 1556.58px ">ast,</tspan></text>
            <text x="1219.38px" y="1589.92px" style="font-family:'Nunito-Medium', 'Nunito';font-weight:500;font-size:33.333px;">c<tspan x="1234.54px " y="1589.92px ">o</tspan>mpose</text>
            <g transform="matrix(33.3333,0,0,33.3333,1390.94,1623.25)">
            </g>
            <text x="1182.48px" y="1623.25px" style="font-family:'Nunito-Medium', 'Nunito';font-weight:500;font-size:33.333px;">securit<tspan x="1282.94px " y="1623.25px ">y</tspan> goal<tspan x="1374.84px " y="1623.25px ">s</tspan></text>
        </g>
        <g transform="matrix(1.14421,0,0,0.79826,-357.308,-79.1139)">
            <rect x="1682.98" y="575.658" width="461.97" height="248.326" style="fill:rgb(64,63,73);"/>
        </g>
        <g transform="matrix(1.14421,0,0,0.79826,782.91,282.596)">
            <rect x="1682.98" y="575.658" width="461.97" height="248.326" style="fill:rgb(64,63,73);"/>
        </g>
        <g transform="matrix(1.14421,0,0,0.79826,782.91,1185.04)">
            <rect x="1682.98" y="575.658" width="461.97" height="248.326" style="fill:rgb(64,63,73);"/>
        </g>
        <g transform="matrix(1.14421,0,0,0.79826,-357.308,1549.16)">
            <rect x="1682.98" y="575.658" width="461.97" height="248.326" style="fill:rgb(64,63,73);"/>
        </g>
        <g transform="matrix(1.14421,0,0,0.79826,-1476.3,1185.04)">
            <rect x="1682.98" y="575.658" width="461.97" height="248.326" style="fill:rgb(64,63,73);"/>
        </g>
        <g transform="matrix(1.14421,0,0,0.79826,-1476.3,279.849)">
            <rect x="1682.98" y="575.658" width="461.97" height="248.326" style="fill:rgb(64,63,73);"/>
        </g>
        <g transform="matrix(1.26834,7.03241e-32,-1.09641e-32,0.9,194.725,-864.072)">
            <text x="1205.45px" y="1482.74px" style="font-family:'Nunito-Bold', 'Nunito';font-weight:700;font-size:41.667px;fill:white;">W<tspan x="1253.91px " y="1482.74px ">h</tspan>at do</text>
            <g transform="matrix(41.6667,0,0,41.6667,1384.72,1532.74)">
            </g>
            <text x="1198.1px" y="1532.74px" style="font-family:'Nunito-Bold', 'Nunito';font-weight:700;font-size:41.667px;fill:white;">w<tspan x="1233.22px " y="1532.74px ">e</tspan> w<tspan x="1302.22px " y="1532.74px ">a</tspan>nt<tspan x="1365.6px " y="1532.74px ">?</tspan></text>
        </g>
        <g transform="matrix(1.26834,9.70178e-32,-7.94742e-33,0.9,1275.12,-561.294)">
            <text x="1228.26px" y="1523.22px" style="font-family:'Nunito-Bold', 'Nunito';font-weight:700;font-size:41.667px;fill:white;">Ho<tspan x="1284.05px " y="1523.22px ">w</tspan> do w<tspan x="1426.3px " y="1523.22px ">e</tspan></text>
            <g transform="matrix(41.6667,0,0,41.6667,1236.62,1573.22)">
            </g>
            <g transform="matrix(41.6667,0,0,41.6667,1251.59,1573.22)">
            </g>
            <text x="1189.12px" y="1573.22px" style="font-family:'Nunito-Bold', 'Nunito';font-weight:700;font-size:41.667px;fill:white;">deﬁne what w<tspan x="1465.45px " y="1573.22px ">e</tspan></text>
            <g transform="matrix(41.6667,0,0,41.6667,1397.39,1623.22)">
            </g>
            <text x="1279.76px" y="1623.22px" style="font-family:'Nunito-Bold', 'Nunito';font-weight:700;font-size:41.667px;fill:white;">w<tspan x="1314.89px " y="1623.22px ">a</tspan>nt<tspan x="1378.26px " y="1623.22px ">?</tspan></text>
        </g>
        <g transform="matrix(1.26834,1.12338e-31,-6.8636e-33,0.9,1342.69,367.116)">
            <text x="1174.99px" y="1519.37px" style="font-family:'Nunito-Bold', 'Nunito';font-weight:700;font-size:41.667px;fill:white;">Ho<tspan x="1230.78px " y="1519.37px ">w</tspan> do w<tspan x="1373.03px " y="1519.37px ">e</tspan></text>
            <g transform="matrix(41.6667,0,0,41.6667,1362.84,1569.37)">
            </g>
            <text x="1207.76px" y="1569.37px" style="font-family:'Nunito-Bold', 'Nunito';font-weight:700;font-size:41.667px;fill:white;">buil<tspan x="1280.59px " y="1569.37px ">d</tspan> it<tspan x="1343.72px " y="1569.37px ">?</tspan></text>
        </g>
        <g transform="matrix(1.26834,1.02541e-31,-7.51933e-33,0.9,134.905,698.282)">
            <text x="1173.7px" y="1530.99px" style="font-family:'Nunito-Bold', 'Nunito';font-weight:700;font-size:41.667px;fill:white;">Ho<tspan x="1229.49px " y="1530.99px ">w</tspan> do w<tspan x="1371.74px " y="1530.99px ">e</tspan> buil<tspan x="1478.45px " y="1530.99px ">d</tspan></text>
            <text x="1182.85px" y="1580.99px" style="font-family:'Nunito-Bold', 'Nunito';font-weight:700;font-size:41.667px;fill:white;">it on c<tspan x="1299.68px " y="1580.99px ">o</tspan>mput<tspan x="1425.14px 1447.72px 1463.85px 1483.97px " y="1580.99px 1580.99px 1580.99px 1580.99px ">ers,</tspan></text>
            <g transform="matrix(41.6667,0,0,41.6667,1427.74,1630.99)">
            </g>
            <text x="1249.41px" y="1630.99px" style="font-family:'Nunito-Bold', 'Nunito';font-weight:700;font-size:41.667px;fill:white;">secur<tspan x="1352.12px 1374.7px 1387.45px 1408.62px " y="1630.99px 1630.99px 1630.99px 1630.99px ">ely?</tspan></text>
        </g>
        <g transform="matrix(1.26834,1.11221e-31,-6.93252e-33,0.9,-984.092,323.167)">
            <text x="1228.26px" y="1543.2px" style="font-family:'Nunito-Bold', 'Nunito';font-weight:700;font-size:41.667px;fill:white;">Ho<tspan x="1284.05px " y="1543.2px ">w</tspan> do w<tspan x="1426.3px " y="1543.2px ">e</tspan></text>
            <text x="1176.97px" y="1593.2px" style="font-family:'Nunito-Bold', 'Nunito';font-weight:700;font-size:41.667px;fill:white;">all<tspan x="1226.14px 1249.72px " y="1593.2px 1593.2px ">ow</tspan> humans t<tspan x="1476.18px " y="1593.2px ">o</tspan></text>
            <g transform="matrix(41.6667,0,0,41.6667,1485.87,1643.2)">
            </g>
            <text x="1191.28px" y="1643.2px" style="font-family:'Nunito-Bold', 'Nunito';font-weight:700;font-size:41.667px;fill:white;">use it secur<tspan x="1410.24px 1432.82px 1445.57px 1466.74px " y="1643.2px 1643.2px 1643.2px 1643.2px ">ely?</tspan></text>
        </g>
        <g transform="matrix(1.26834,1.04119e-31,-7.40536e-33,0.9,-984.092,-573.031)">
            <text x="1221.22px" y="1533.21px" style="font-family:'Nunito-Bold', 'Nunito';font-weight:700;font-size:41.667px;fill:white;">Is it actuall<tspan x="1434.01px " y="1533.21px ">y</tspan></text>
            <text x="1222.3px" y="1583.21px" style="font-family:'Nunito-Bold', 'Nunito';font-weight:700;font-size:41.667px;fill:white;">cr<tspan x="1257.97px " y="1583.21px ">e</tspan>at<tspan x="1319.89px " y="1583.21px ">i</tspan>ng t<tspan x="1407.89px " y="1583.21px ">h</tspan>e</text>
            <g transform="matrix(41.6667,0,0,41.6667,1479.78,1633.21)">
            </g>
            <text x="1197.37px" y="1633.21px" style="font-family:'Nunito-Bold', 'Nunito';font-weight:700;font-size:41.667px;fill:white;">desir<tspan x="1291.91px " y="1633.21px ">e</tspan>d ef<tspan x="1387.49px 1402.12px " y="1633.21px 1633.21px ">fe</tspan>ct<tspan x="1460.66px " y="1633.21px ">?</tspan></text>
        </g>
        <g transform="matrix(0.374924,0.992661,-1.43951,0.273761,2158.99,-552.218)">
            <path d="M1172.01,532.028L1327.42,669.541L1016.6,669.541L1172.01,532.028Z" style="fill:rgb(253,180,218);"/>
        </g>
        <g transform="matrix(5.55112e-17,1.02769,-1.49031,1.11022e-16,2841.54,-428.163)">
            <path d="M1172.01,532.028L1327.42,669.541L1016.6,669.541L1172.01,532.028Z" style="fill:white;"/>
        </g>
    </g>
</svg>
