<?xml version="1.0" encoding="UTF-8" standalone="no"?>
<!DOCTYPE svg PUBLIC "-//W3C//DTD SVG 1.1//EN" "http://www.w3.org/Graphics/SVG/1.1/DTD/svg11.dtd">
<svg width="100%" height="100%" viewBox="0 0 2363 2363" version="1.1" xmlns="http://www.w3.org/2000/svg" xmlns:xlink="http://www.w3.org/1999/xlink" xml:space="preserve" xmlns:serif="http://www.serif.com/" style="fill-rule:evenodd;clip-rule:evenodd;stroke-linejoin:round;stroke-miterlimit:2;">
    <g id="pillars" transform="matrix(0.788433,0,0,1.11111,-263.835,-196.85)">
        <rect x="334.633" y="177.165" width="2996.08" height="2125.98" style="fill:none;"/>
        <g transform="matrix(3.05426,-4.52894e-32,-1.28083e-32,0.273646,-1616.99,49.0518)">
            <path d="M1608.99,568.833C1608.99,562.401 1608.34,557.179 1607.52,557.179L649.136,557.179C648.324,557.179 647.664,562.401 647.664,568.833L647.664,933.981C647.664,940.413 648.324,945.635 649.136,945.635L1607.52,945.635C1608.34,945.635 1608.99,940.413 1608.99,933.981L1608.99,568.833Z" style="fill:rgb(64,63,73);"/>
        </g>
        <g transform="matrix(1.26587,-1.83365e-32,-3.10812e-32,0.89825,-1002.14,-1052.79)">
            <g transform="matrix(50.5149,0,0,50.5149,2602.6,1473.55)">
            </g>
            <text x="1870.79px" y="1473.55px" style="font-family:'Nunito-Medium', 'Nunito';font-weight:500;font-size:50.515px;fill:white;">T<tspan x="1903.07px 1931.96px 1950.05px " y="1473.55px 1473.55px 1473.55px ">hre</tspan>e Pillar<tspan x="2136.85px " y="1473.55px ">s</tspan> o<tspan x="2202.47px " y="1473.55px ">f</tspan> P<tspan x="2263.79px " y="1473.55px ">a</tspan>ssiv<tspan x="2377.25px " y="1473.55px ">e</tspan> Securit<tspan x="2576.48px " y="1473.55px ">y</tspan></text>
        </g>
        <g transform="matrix(1.77752,3.35476e-18,3.11786e-17,0.136471,-264.088,1468.43)">
            <rect x="549.893" y="1657.85" width="1259.4" height="331.65" style="fill:rgb(179,178,182);"/>
        </g>
        <g transform="matrix(1.77752,3.35476e-18,3.11786e-17,0.136471,-264.088,661.085)">
            <rect x="549.893" y="1657.85" width="1259.4" height="331.65" style="fill:rgb(179,178,182);"/>
        </g>
        <g transform="matrix(1.85087,3.35476e-18,3.24652e-17,0.136471,-350.611,1533.6)">
            <rect x="549.893" y="1657.85" width="1259.4" height="331.65" style="fill:rgb(179,178,182);"/>
        </g>
        <g transform="matrix(1.96049,3.35476e-18,3.4388e-17,0.136471,-479.92,1598.78)">
            <rect x="549.893" y="1657.85" width="1259.4" height="331.65" style="fill:rgb(179,178,182);"/>
        </g>
        <g transform="matrix(1.96049,5.94601e-18,3.4388e-17,0.241882,-479.92,386.194)">
            <rect x="549.893" y="1657.85" width="1259.4" height="331.65" style="fill:rgb(179,178,182);"/>
        </g>
        <g transform="matrix(2.07227,1.61452e-17,3.63485e-17,0.656781,-611.765,801.359)">
            <rect x="549.893" y="1657.85" width="1259.4" height="331.65" style="fill:rgb(103,102,110);"/>
        </g>
        <g transform="matrix(1.77752,2.2124e-17,3.11786e-17,0.9,-192.176,187.364)">
            <rect x="599.749" y="910.006" width="192.921" height="682.81" style="fill:rgb(47,110,132);"/>
        </g>
        <g transform="matrix(2.18846,2.2124e-17,2.12042e-18,0.0497145,-478.276,1595.57)">
            <rect x="599.749" y="910.006" width="192.921" height="682.81" style="fill:rgb(47,110,132);"/>
        </g>
        <g transform="matrix(2.18846,2.2124e-17,2.12042e-18,0.0497145,-478.276,907.268)">
            <rect x="599.749" y="910.006" width="192.921" height="682.81" style="fill:rgb(47,110,132);"/>
        </g>
        <g transform="matrix(1.77752,2.2124e-17,3.11786e-17,0.9,595.142,187.364)">
            <rect x="599.749" y="910.006" width="192.921" height="682.81" style="fill:rgb(247,4,132);"/>
        </g>
        <g transform="matrix(2.18846,2.2124e-17,2.12042e-18,0.0497145,309.042,1595.57)">
            <rect x="599.749" y="910.006" width="192.921" height="682.81" style="fill:rgb(247,4,132);"/>
        </g>
        <g transform="matrix(2.18846,2.2124e-17,2.12042e-18,0.0497145,309.042,907.268)">
            <rect x="599.749" y="910.006" width="192.921" height="682.81" style="fill:rgb(247,4,132);"/>
        </g>
        <g transform="matrix(1.77752,2.2124e-17,3.11786e-17,0.9,1382.46,187.364)">
            <rect x="599.749" y="910.006" width="192.921" height="682.81" style="fill:rgb(121,4,247);"/>
        </g>
        <g transform="matrix(2.18846,2.2124e-17,2.12042e-18,0.0497145,1096.36,1595.57)">
            <rect x="599.749" y="910.006" width="192.921" height="682.81" style="fill:rgb(121,4,247);"/>
        </g>
        <g transform="matrix(2.18846,2.2124e-17,2.12042e-18,0.0497145,1096.36,907.268)">
            <rect x="599.749" y="910.006" width="192.921" height="682.81" style="fill:rgb(121,4,247);"/>
        </g>
        <g transform="matrix(1.90476,2.2124e-17,3.34104e-17,0.9,-384.55,7.59555)">
            <path d="M1161.17,472.441L1809.3,840.641L513.043,840.641L1161.17,472.441Z" style="fill:rgb(103,102,110);"/>
        </g>
        <g transform="matrix(1.44148,1.6743e-17,2.52843e-17,0.6811,153.398,151.312)">
            <path d="M1161.17,472.441L1809.3,840.641L513.043,840.641L1161.17,472.441ZM1161.17,495.987L593.257,818.618L1729.08,818.618L1161.17,495.987Z" style="fill:white;"/>
        </g>
        <g transform="matrix(7.76634e-17,-0.9,1.26834,5.51091e-17,-927.348,2620.38)">
            <text x="1171.58px" y="1523.33px" style="font-family:'Nunito-Medium', 'Nunito';font-weight:500;font-size:83.333px;fill:white;">Classic</text>
            <g transform="matrix(83.3333,0,0,83.3333,1691.24,1623.33)">
            </g>
            <text x="1171.58px" y="1623.33px" style="font-family:'Nunito-Medium', 'Nunito';font-weight:500;font-size:83.333px;fill:white;">Cr<tspan x="1260.74px 1303.83px 1352.33px 1381.74px " y="1623.33px 1623.33px 1623.33px 1623.33px ">ypto</tspan>gr<tspan x="1507.58px " y="1623.33px ">a</tspan>ph<tspan x="1648.16px " y="1623.33px ">y</tspan></text>
        </g>
        <g transform="matrix(7.76634e-17,-0.9,1.26834,5.51091e-17,-135.838,2620.38)">
            <text x="1171.58px" y="1523.33px" style="font-family:'Nunito-Medium', 'Nunito';font-weight:500;font-size:83.333px;fill:white;">P<tspan x="1222.74px 1269.41px 1309.24px 1338.33px " y="1523.33px 1523.33px 1523.33px 1523.33px ">ost-</tspan>Quantum</text>
            <g transform="matrix(83.3333,0,0,83.3333,1691.24,1623.33)">
            </g>
            <text x="1171.58px" y="1623.33px" style="font-family:'Nunito-Medium', 'Nunito';font-weight:500;font-size:83.333px;fill:white;">Cr<tspan x="1260.74px 1303.83px 1352.33px 1381.74px " y="1623.33px 1623.33px 1623.33px 1623.33px ">ypto</tspan>gr<tspan x="1507.58px " y="1623.33px ">a</tspan>ph<tspan x="1648.16px " y="1623.33px ">y</tspan></text>
        </g>
        <g transform="matrix(1.26834,1.19106e-32,-8.01054e-32,0.9,-652.191,637.126)">
            <g transform="matrix(83.3333,0,0,83.3333,2421.82,1536.91)">
            </g>
            <text x="1479.73px" y="1536.91px" style="font-family:'Nunito-Medium', 'Nunito';font-weight:500;font-size:83.333px;fill:white;">S<tspan x="1530.65px " y="1536.91px ">y</tspan>mmetric Cr<tspan x="1991.32px 2034.4px 2082.9px 2112.32px " y="1536.91px 1536.91px 1536.91px 1536.91px ">ypto</tspan>gr<tspan x="2238.15px " y="1536.91px ">a</tspan>ph<tspan x="2378.73px " y="1536.91px ">y</tspan></text>
        </g>
        <g transform="matrix(1.26834,9.24836e-33,-1.03165e-31,0.9,-652.191,-702.495)">
            <g transform="matrix(83.3333,0,0,83.3333,2255.77,1517.84)">
            </g>
            <text x="1645.78px" y="1517.84px" style="font-family:'Nunito-Medium', 'Nunito';font-weight:500;font-size:83.333px;fill:white;">P<tspan x="1696.86px " y="1517.84px ">a</tspan>ssiv<tspan x="1884.03px " y="1517.84px ">e</tspan> Securit<tspan x="2212.69px " y="1517.84px ">y</tspan></text>
        </g>
        <g transform="matrix(7.76634e-17,-0.9,1.26834,5.51091e-17,657.25,2620.38)">
            <text x="1171.58px" y="1523.33px" style="font-family:'Nunito-Medium', 'Nunito';font-weight:500;font-size:83.333px;fill:white;">Quantum K<tspan x="1597.24px 1641.16px " y="1523.33px 1523.33px ">ey</tspan></text>
            <g transform="matrix(83.3333,0,0,83.3333,1613.99,1623.33)">
            </g>
            <text x="1171.58px" y="1623.33px" style="font-family:'Nunito-Medium', 'Nunito';font-weight:500;font-size:83.333px;fill:white;">Dis<tspan x="1293.41px " y="1623.33px ">t</tspan>ribut<tspan x="1499.91px " y="1623.33px ">i</tspan>on</text>
        </g>
    </g>
</svg>
